<svg xmlns="http://www.w3.org/2000/svg" viewBox="0 0 92.75 92.75"><defs><style>.cls-1{fill:#1d1d1b;}</style></defs><g id="Слой_2" data-name="Слой 2"><g id="иконки_линия" data-name="иконки линия"><path class="cls-1" d="M46.38,92.75A46.38,46.38,0,1,1,92.75,46.38,46.42,46.42,0,0,1,46.38,92.75ZM46.38,6A40.38,40.38,0,1,0,86.75,46.38,40.42,40.42,0,0,0,46.38,6Z"/><path class="cls-1" d="M36.94,75.63a2.84,2.84,0,0,1-.76-.1A16.16,16.16,0,0,1,24.46,59.81V28.19a3,3,0,0,1,6,0V59.81a10.08,10.08,0,0,0,7.27,9.93,3,3,0,0,1-.79,5.89Z"/><path class="cls-1" d="M36.94,50.67a3,3,0,0,1-3-3V21.05a3,3,0,1,1,6,0V47.67A3,3,0,0,1,36.94,50.67Z"/><path class="cls-1" d="M46.2,50.17a3,3,0,0,1-3-3V16.08a3,3,0,0,1,6,0V47.17A3,3,0,0,1,46.2,50.17Z"/><path class="cls-1" d="M55.64,46.36a3,3,0,0,1-3-3V18.29a3,3,0,0,1,6,0V43.36A3,3,0,0,1,55.64,46.36Z"/><path class="cls-1" d="M52.82,75.7a8.25,8.25,0,0,1-1.44-.12,3,3,0,0,1,1.07-5.9c1,.14,4.14.21,5.25-4.9,2-9.17,4.42-14.83,8.1-18.94a3,3,0,1,1,4.47,4c-2.94,3.28-5,8.12-6.7,16.2S56.13,75.7,52.82,75.7Z"/></g></g></svg>