<?xml version="1.0" encoding="UTF-8"?>
<svg xmlns="http://www.w3.org/2000/svg" xmlns:xlink="http://www.w3.org/1999/xlink" width="810pt" height="809.999993pt" viewBox="0 0 810 809.999993" version="1.2">
<defs>
<clipPath id="clip1">
  <path d="M 408 188.382812 L 457 188.382812 L 457 200 L 408 200 Z M 408 188.382812 "/>
</clipPath>
<clipPath id="clip2">
  <path d="M 305 500 L 433 500 L 433 512.382812 L 305 512.382812 Z M 305 500 "/>
</clipPath>
<clipPath id="clip3">
  <path d="M 247.621094 231 L 489.871094 231 L 489.871094 289 L 247.621094 289 Z M 247.621094 231 "/>
</clipPath>
</defs>
<g id="surface1">
<rect x="0" y="0" width="810" height="809.999993" style="fill:rgb(100%,100%,100%);fill-opacity:1;stroke:none;"/>
<rect x="0" y="0" width="810" height="809.999993" style="fill:rgb(100%,100%,100%);fill-opacity:1;stroke:none;"/>
<rect x="0" y="0" width="810" height="809.999993" style="fill:rgb(100%,100%,100%);fill-opacity:1;stroke:none;"/>
<path style=" stroke:none;fill-rule:nonzero;fill:rgb(8.239746%,8.239746%,8.628845%);fill-opacity:1;" d="M 293.707031 490.398438 C 293.984375 492.269531 295.621094 493.679688 297.511719 493.679688 L 439.984375 493.679688 C 441.878906 493.679688 443.511719 492.269531 443.789062 490.398438 L 472.851562 294.75 L 264.644531 294.75 L 293.707031 490.398438 "/>
<path style=" stroke:none;fill-rule:nonzero;fill:rgb(8.239746%,8.239746%,8.628845%);fill-opacity:1;" d="M 468.023438 206.191406 L 269.472656 206.191406 C 266.519531 206.191406 264.117188 208.59375 264.117188 211.546875 L 264.117188 224.839844 L 473.378906 224.839844 L 473.378906 211.546875 C 473.378906 208.59375 470.976562 206.191406 468.023438 206.191406 "/>
<g clip-path="url(#clip1)" clip-rule="nonzero">
<path style=" stroke:none;fill-rule:nonzero;fill:rgb(8.239746%,8.239746%,8.628845%);fill-opacity:1;" d="M 456.347656 188.382812 L 409.003906 188.382812 C 408.808594 188.382812 408.652344 188.539062 408.652344 188.734375 L 408.652344 199.578125 L 456.699219 199.578125 L 456.699219 188.734375 C 456.699219 188.539062 456.539062 188.382812 456.347656 188.382812 "/>
</g>
<g clip-path="url(#clip2)" clip-rule="nonzero">
<path style=" stroke:none;fill-rule:nonzero;fill:rgb(8.239746%,8.239746%,8.628845%);fill-opacity:1;" d="M 305.835938 512.382812 L 431.660156 512.382812 C 431.855469 512.382812 432.011719 512.222656 432.011719 512.027344 L 432.011719 500.289062 L 305.484375 500.289062 L 305.484375 512.027344 C 305.484375 512.222656 305.640625 512.382812 305.835938 512.382812 "/>
</g>
<g clip-path="url(#clip3)" clip-rule="nonzero">
<path style=" stroke:none;fill-rule:nonzero;fill:rgb(8.239746%,8.239746%,8.628845%);fill-opacity:1;" d="M 486.691406 288.140625 C 488.449219 288.140625 489.875 286.714844 489.875 284.957031 L 489.875 234.632812 C 489.875 232.878906 488.449219 231.453125 486.691406 231.453125 L 250.804688 231.453125 C 249.046875 231.453125 247.621094 232.878906 247.621094 234.632812 L 247.621094 284.957031 C 247.621094 286.714844 249.046875 288.140625 250.804688 288.140625 L 486.691406 288.140625 "/>
</g>
</g>
</svg>
