<?xml version="1.0" encoding="UTF-8"?>
<svg xmlns="http://www.w3.org/2000/svg" xmlns:xlink="http://www.w3.org/1999/xlink" width="810pt" height="809.999993pt" viewBox="0 0 810 809.999993" version="1.2">
<defs>
<clipPath id="clip1">
  <path d="M 261.414062 542 L 409 542 L 409 556.769531 L 261.414062 556.769531 Z M 261.414062 542 "/>
</clipPath>
<clipPath id="clip2">
  <path d="M 261.414062 284 L 490 284 L 490 537 L 261.414062 537 Z M 261.414062 284 "/>
</clipPath>
<clipPath id="clip3">
  <path d="M 402 495 L 567.414062 495 L 567.414062 556.769531 L 402 556.769531 Z M 402 495 "/>
</clipPath>
<clipPath id="clip4">
  <path d="M 297 232.769531 L 454 232.769531 L 454 283 L 297 283 Z M 297 232.769531 "/>
</clipPath>
<clipPath id="clip5">
  <path d="M 473 542 L 490 542 L 490 556.769531 L 473 556.769531 Z M 473 542 "/>
</clipPath>
</defs>
<g id="surface1">
<rect x="0" y="0" width="810" height="809.999993" style="fill:rgb(100%,100%,100%);fill-opacity:1;stroke:none;"/>
<rect x="0" y="0" width="810" height="809.999993" style="fill:rgb(100%,100%,100%);fill-opacity:1;stroke:none;"/>
<rect x="0" y="0" width="810" height="809.999993" style="fill:rgb(100%,100%,100%);fill-opacity:1;stroke:none;"/>
<g clip-path="url(#clip1)" clip-rule="nonzero">
<path style=" stroke:none;fill-rule:nonzero;fill:rgb(8.239746%,8.239746%,8.628845%);fill-opacity:1;" d="M 261.476562 542.941406 L 261.476562 553.78125 C 261.476562 555.429688 262.820312 556.769531 264.46875 556.769531 L 408.429688 556.769531 L 405.660156 542.941406 L 261.476562 542.941406 "/>
</g>
<g clip-path="url(#clip2)" clip-rule="nonzero">
<path style=" stroke:none;fill-rule:nonzero;fill:rgb(8.239746%,8.239746%,8.628845%);fill-opacity:1;" d="M 322.546875 472.015625 C 322.546875 470.191406 324.027344 468.710938 325.859375 468.710938 L 425.105469 468.710938 C 426.933594 468.710938 428.414062 470.191406 428.414062 472.015625 C 428.414062 473.839844 426.933594 475.324219 425.105469 475.324219 L 325.859375 475.324219 C 324.027344 475.324219 322.546875 473.839844 322.546875 472.015625 Z M 306.792969 451.046875 C 306.792969 449.222656 308.277344 447.742188 310.109375 447.742188 L 440.855469 447.742188 C 442.683594 447.742188 444.164062 449.222656 444.164062 451.046875 C 444.164062 452.875 442.683594 454.351562 440.855469 454.351562 L 310.109375 454.351562 C 308.277344 454.351562 306.792969 452.875 306.792969 451.046875 Z M 316.636719 332.898438 C 316.636719 331.074219 318.121094 329.59375 319.953125 329.59375 L 431.011719 329.59375 C 432.839844 329.59375 434.320312 331.074219 434.320312 332.898438 L 434.320312 424.03125 C 434.320312 425.855469 432.839844 427.335938 431.011719 427.335938 L 319.953125 427.335938 C 318.121094 427.335938 316.636719 425.855469 316.636719 424.03125 Z M 395.640625 492.921875 C 395.445312 491.949219 395.695312 490.941406 396.324219 490.175781 C 396.957031 489.410156 397.894531 488.96875 398.886719 488.96875 L 489.484375 488.96875 L 489.484375 345.453125 C 489.484375 321.429688 475.492188 300.613281 455.222656 290.683594 C 454.609375 290.386719 453.992188 290.105469 453.371094 289.828125 C 452.996094 289.660156 452.625 289.480469 452.246094 289.320312 C 451.292969 288.914062 450.335938 288.535156 449.367188 288.179688 C 448.839844 287.984375 448.296875 287.816406 447.765625 287.636719 C 447.285156 287.476562 446.808594 287.3125 446.328125 287.164062 C 445.730469 286.980469 445.121094 286.8125 444.519531 286.648438 C 444.089844 286.53125 443.660156 286.414062 443.230469 286.308594 C 442.613281 286.152344 441.988281 286.011719 441.367188 285.875 C 440.925781 285.78125 440.484375 285.691406 440.039062 285.605469 C 439.429688 285.488281 438.820312 285.375 438.203125 285.277344 C 437.710938 285.199219 437.214844 285.128906 436.71875 285.0625 C 436.148438 284.984375 435.582031 284.90625 435.011719 284.84375 C 434.382812 284.777344 433.757812 284.730469 433.128906 284.683594 C 432.671875 284.648438 432.214844 284.601562 431.753906 284.578125 C 430.648438 284.519531 429.539062 284.484375 428.421875 284.484375 L 322.539062 284.484375 C 321.421875 284.484375 320.3125 284.519531 319.203125 284.578125 C 318.746094 284.601562 318.289062 284.648438 317.828125 284.683594 C 317.203125 284.730469 316.574219 284.777344 315.953125 284.84375 C 315.378906 284.90625 314.808594 284.984375 314.242188 285.0625 C 313.746094 285.128906 313.253906 285.199219 312.761719 285.277344 C 312.140625 285.375 311.527344 285.488281 310.914062 285.605469 C 310.476562 285.691406 310.039062 285.78125 309.601562 285.875 C 308.972656 286.011719 308.347656 286.152344 307.730469 286.308594 C 307.300781 286.414062 306.878906 286.53125 306.453125 286.644531 C 305.84375 286.8125 305.234375 286.980469 304.628906 287.164062 C 304.15625 287.308594 303.691406 287.472656 303.21875 287.628906 C 302.675781 287.808594 302.128906 287.984375 301.589844 288.179688 C 300.625 288.535156 299.667969 288.914062 298.714844 289.316406 C 298.332031 289.480469 297.957031 289.660156 297.578125 289.832031 C 296.960938 290.109375 296.347656 290.386719 295.742188 290.683594 C 275.46875 300.613281 261.476562 321.429688 261.476562 345.453125 L 261.476562 536.332031 L 404.335938 536.332031 L 395.640625 492.921875 "/>
</g>
<g clip-path="url(#clip3)" clip-rule="nonzero">
<path style=" stroke:none;fill-rule:nonzero;fill:rgb(8.239746%,8.239746%,8.628845%);fill-opacity:1;" d="M 411.464844 538.214844 C 411.671875 538.648438 411.796875 539.125 411.796875 539.636719 L 411.78125 539.796875 L 415.179688 556.769531 L 467.140625 556.769531 L 475.746094 513.8125 C 476.054688 512.265625 477.414062 511.152344 478.992188 511.152344 L 554.199219 511.152344 C 561.546875 511.152344 567.523438 505.183594 567.523438 497.851562 L 567.523438 495.578125 L 402.925781 495.578125 L 411.464844 538.214844 "/>
</g>
<path style=" stroke:none;fill-rule:nonzero;fill:rgb(8.239746%,8.239746%,8.628845%);fill-opacity:1;" d="M 489.484375 536.332031 L 489.484375 517.765625 L 481.707031 517.765625 L 477.988281 536.332031 L 489.484375 536.332031 "/>
<g clip-path="url(#clip4)" clip-rule="nonzero">
<path style=" stroke:none;fill-rule:nonzero;fill:rgb(8.239746%,8.239746%,8.628845%);fill-opacity:1;" d="M 453.828125 248.914062 L 421.539062 248.914062 C 419.710938 248.914062 418.230469 247.433594 418.230469 245.605469 C 418.230469 243.78125 419.710938 242.300781 421.539062 242.300781 L 453.828125 242.300781 L 453.828125 234.765625 C 453.828125 233.664062 452.929688 232.769531 451.828125 232.769531 L 299.132812 232.769531 C 298.03125 232.769531 297.132812 233.664062 297.132812 234.765625 L 297.132812 242.300781 L 403.351562 242.300781 C 405.183594 242.300781 406.664062 243.78125 406.664062 245.605469 C 406.664062 247.433594 405.183594 248.914062 403.351562 248.914062 L 297.132812 248.914062 L 297.132812 282.808594 C 297.609375 282.613281 298.097656 282.445312 298.578125 282.261719 C 298.90625 282.132812 299.234375 282.007812 299.566406 281.886719 C 300.34375 281.605469 301.125 281.34375 301.910156 281.09375 C 302.148438 281.015625 302.382812 280.9375 302.617188 280.863281 C 303.503906 280.589844 304.394531 280.339844 305.292969 280.105469 C 305.445312 280.0625 305.597656 280.015625 305.753906 279.980469 C 306.710938 279.734375 307.679688 279.511719 308.648438 279.308594 C 308.761719 279.285156 308.875 279.257812 308.988281 279.234375 C 309.976562 279.03125 310.96875 278.855469 311.964844 278.703125 C 312.078125 278.683594 312.191406 278.664062 312.308594 278.644531 C 313.277344 278.496094 314.253906 278.375 315.234375 278.273438 C 315.386719 278.253906 315.542969 278.230469 315.695312 278.21875 C 316.632812 278.125 317.574219 278.054688 318.519531 278 C 318.71875 277.988281 318.917969 277.96875 319.117188 277.960938 C 320.253906 277.902344 321.394531 277.875 322.539062 277.875 L 428.421875 277.875 C 429.566406 277.875 430.707031 277.902344 431.84375 277.960938 C 432.042969 277.96875 432.246094 277.988281 432.445312 278.003906 C 433.390625 278.054688 434.328125 278.125 435.265625 278.21875 C 435.421875 278.230469 435.578125 278.253906 435.738281 278.273438 C 436.710938 278.375 437.683594 278.5 438.648438 278.644531 C 438.769531 278.664062 438.890625 278.6875 439.011719 278.707031 C 440 278.859375 440.988281 279.035156 441.96875 279.234375 C 442.089844 279.257812 442.210938 279.289062 442.328125 279.3125 C 443.292969 279.515625 444.25 279.734375 445.203125 279.976562 C 445.363281 280.015625 445.523438 280.066406 445.683594 280.109375 C 446.574219 280.34375 447.460938 280.589844 448.339844 280.863281 C 448.582031 280.9375 448.820312 281.019531 449.058594 281.09375 C 449.839844 281.347656 450.621094 281.605469 451.394531 281.882812 C 451.726562 282.007812 452.054688 282.136719 452.386719 282.261719 C 452.867188 282.445312 453.351562 282.613281 453.828125 282.808594 L 453.828125 248.914062 "/>
</g>
<g clip-path="url(#clip5)" clip-rule="nonzero">
<path style=" stroke:none;fill-rule:nonzero;fill:rgb(8.239746%,8.239746%,8.628845%);fill-opacity:1;" d="M 473.894531 556.769531 L 486.492188 556.769531 C 488.144531 556.769531 489.484375 555.429688 489.484375 553.78125 L 489.484375 542.941406 L 476.664062 542.941406 L 473.894531 556.769531 "/>
</g>
</g>
</svg>
