<svg xmlns="http://www.w3.org/2000/svg" viewBox="0 0 92.75 92.75"><defs><style>.cls-1{fill:#1d1d1b;}</style></defs><g id="Слой_2" data-name="Слой 2"><g id="иконки_линия" data-name="иконки линия"><path class="cls-1" d="M46.38,92.75A46.38,46.38,0,1,1,92.75,46.38,46.42,46.42,0,0,1,46.38,92.75ZM46.38,6A40.38,40.38,0,1,0,86.75,46.38,40.42,40.42,0,0,0,46.38,6Z"/><path class="cls-1" d="M53.61,80.32H35.43a6.63,6.63,0,0,1-5.11-1.89A4.79,4.79,0,0,1,29,75V62.8c-1.62-3-7.35-15-6.1-28C24.5,18.18,35.2,16.43,41.6,15.39a52.11,52.11,0,0,1,8.33-.75c10.82,0,14.56,4.81,15.79,8.85a9.84,9.84,0,0,1,.37,4.63l.65.85c.2.26,4.9,6.52,2.68,13.59-1.93,6.16-4.93,14.68-9.19,19.5,0,4.14-.06,7.77-.1,10.24,0,1.3,0,2.26,0,2.79C60.1,77.69,58.1,80.32,53.61,80.32Zm-18.6-6h18.6l.5,0c0-.54,0-1.24,0-2.08,0-2.69.1-6.76.1-11.36V59.58l.92-.89c4.19-4,7.47-14.49,8.55-17.93a5.33,5.33,0,0,0,.17-.66c-1.79,1.08-3.9.44-5.41-1.37a7.33,7.33,0,0,1-1.69-5.79,7.79,7.79,0,0,1,2.12-3.8c1.15-1.34,1.68-2,1.09-3.9-.93-3-4.31-4.6-10-4.6a47.32,47.32,0,0,0-7.37.67c-6.16,1-12.52,2-13.68,14.08-1.23,12.84,5.66,25,5.73,25.15l.39.69Z"/><path class="cls-1" d="M50.09,71.1H40a3,3,0,0,1,0-6H50.09a3,3,0,0,1,0,6Z"/></g></g></svg>