<svg xmlns="http://www.w3.org/2000/svg" viewBox="0 0 92.76 92.75"><defs><style>.cls-1{fill:#1C449C;}</style></defs><g id="Слой_2" data-name="Слой 2"><g id="иконки_линия" data-name="иконки линия"><path class="cls-1" d="M46.38,92.75A46.38,46.38,0,1,1,92.76,46.38,46.42,46.42,0,0,1,46.38,92.75ZM46.38,6A40.38,40.38,0,1,0,86.76,46.38,40.42,40.42,0,0,0,46.38,6Z"/><path class="cls-1" d="M62.23,63.89H31.67a13.65,13.65,0,0,1-3.58-26.83A13.68,13.68,0,0,1,41.62,25.31a13.53,13.53,0,0,1,9.54,3.9,13.58,13.58,0,0,1,13.37,7.57,13.65,13.65,0,0,1-2.3,27.11ZM41.62,31.31A7.67,7.67,0,0,0,34,39a2.35,2.35,0,0,0,0,.27v.17a3,3,0,0,1-2.8,3.19,7.65,7.65,0,0,0,.49,15.29H62.23a7.66,7.66,0,0,0,.15-15.31,3,3,0,0,1-2.8-2.09,7.63,7.63,0,0,0-8.93-5.15,3,3,0,0,1-3-1.08A7.61,7.61,0,0,0,41.62,31.31Z"/></g></g></svg>