<svg xmlns="http://www.w3.org/2000/svg" viewBox="0 0 92.75 92.75"><defs><style>.cls-1{fill:#1C449C;}</style></defs><g id="Слой_2" data-name="Слой 2"><g id="иконки_линия" data-name="иконки линия"><path class="cls-1" d="M46.38,92.75A46.38,46.38,0,1,1,92.75,46.38,46.42,46.42,0,0,1,46.38,92.75ZM46.38,6A40.38,40.38,0,1,0,86.75,46.38,40.42,40.42,0,0,0,46.38,6Z"/><path class="cls-1" d="M46.38,47.39A17.71,17.71,0,1,1,64.09,29.68,17.73,17.73,0,0,1,46.38,47.39Zm0-29.42A11.71,11.71,0,1,0,58.09,29.68,11.72,11.72,0,0,0,46.38,18Z"/><path class="cls-1" d="M61.09,72.79A17.71,17.71,0,1,1,78.8,55.08,17.73,17.73,0,0,1,61.09,72.79Zm0-29.42A11.71,11.71,0,1,0,72.8,55.08,11.72,11.72,0,0,0,61.09,43.37Z"/><path class="cls-1" d="M31.67,72.79A17.71,17.71,0,1,1,49.38,55.08,17.74,17.74,0,0,1,31.67,72.79Zm0-29.42A11.71,11.71,0,1,0,43.38,55.08,11.73,11.73,0,0,0,31.67,43.37Z"/></g></g></svg>