<svg xmlns="http://www.w3.org/2000/svg" viewBox="0 0 92.75 92.75"><defs><style>.cls-1{fill:#1C449C;}</style></defs><g id="Слой_2" data-name="Слой 2"><g id="иконки_линия" data-name="иконки линия"><path class="cls-1" d="M46.38,92.75A46.38,46.38,0,1,1,92.75,46.38,46.42,46.42,0,0,1,46.38,92.75ZM46.38,6A40.38,40.38,0,1,0,86.75,46.38,40.42,40.42,0,0,0,46.38,6Z"/><path class="cls-1" d="M66.16,59.3a3,3,0,0,1-3-3V36.73a3,3,0,1,1,6,0V56.3A3,3,0,0,1,66.16,59.3Z"/><path class="cls-1" d="M60.17,63.88a3,3,0,0,1-3-3V32.15a3,3,0,1,1,6,0V60.88A3,3,0,0,1,60.17,63.88Z"/><path class="cls-1" d="M27.79,59.3a3,3,0,0,1-3-3V36.73a3,3,0,0,1,6,0V56.3A3,3,0,0,1,27.79,59.3Z"/><path class="cls-1" d="M33.54,63.88a3,3,0,0,1-3-3V32.15a3,3,0,0,1,6,0V60.88A3,3,0,0,1,33.54,63.88Z"/><rect class="cls-1" x="17.15" y="43.52" width="58.46" height="6"/></g></g></svg>