<svg xmlns="http://www.w3.org/2000/svg" viewBox="0 0 92.24 92.24"><defs><style>.cls-1{fill:#1C449C;}</style></defs><g id="Слой_2" data-name="Слой 2"><g id="иконки_линия" data-name="иконки линия"><path class="cls-1" d="M53,38.57A10.54,10.54,0,1,1,63.5,28,10.55,10.55,0,0,1,53,38.57ZM53,23.5A4.54,4.54,0,1,0,57.5,28,4.53,4.53,0,0,0,53,23.5Z"/><path class="cls-1" d="M35,76.14A10.53,10.53,0,1,1,45.52,65.61,10.54,10.54,0,0,1,35,76.14Zm0-15.06a4.53,4.53,0,1,0,4.53,4.53A4.53,4.53,0,0,0,35,61.08Z"/><path class="cls-1" d="M46.12,92.24A46.12,46.12,0,1,1,92.24,46.12,46.17,46.17,0,0,1,46.12,92.24ZM46.12,6A40.12,40.12,0,1,0,86.24,46.12,40.17,40.17,0,0,0,46.12,6Z"/><path class="cls-1" d="M36.38,91.12v-6C50,85.12,55,74.06,55,66.62c0-7.93-3.45-10.32-11.79-16.08l-1-.69C33.4,43.77,25.71,31.3,33,16.2,39.89,1.82,56.26.75,68.55,5.85l-2.3,5.54C58.72,8.27,44.38,6.32,38.38,18.8c-5.62,11.68,0,21.16,7.22,26.12l1,.68c8.66,6,14.38,9.94,14.38,21C61,78.5,52.35,91.12,36.38,91.12Z"/></g></g></svg>