<svg xmlns="http://www.w3.org/2000/svg" viewBox="0 0 92.75 92.75"><defs><style>.cls-1{fill:#1d1d1b;}</style></defs><g id="Слой_2" data-name="Слой 2"><g id="иконки_линия" data-name="иконки линия"><path class="cls-1" d="M46.38,92.75A46.38,46.38,0,1,1,92.75,46.38,46.42,46.42,0,0,1,46.38,92.75ZM46.38,6A40.38,40.38,0,1,0,86.75,46.38,40.42,40.42,0,0,0,46.38,6Z"/><path class="cls-1" d="M34.54,89.71A35.4,35.4,0,0,1,34,82.59C34.3,78,39,71.5,39.89,70.24A3,3,0,0,1,42.26,69c.1,0,9.51-.16,17.12-2.54,1.95-.61,3.08-1.55,3.34-2.78.41-1.89-1-4.67-3.31-6.75a3,3,0,0,1-.57-3.82,11,11,0,0,0,.8-1.51,3,3,0,0,1-1.88-4.55,28.63,28.63,0,0,0,1.56-2.74,7.07,7.07,0,0,1-1.48-1.23c-3.11-3.42-.88-6.29-.15-7.23l.38-.48.61-.78A23.85,23.85,0,0,0,56,33.18c-1.82-.82-7.86-3.7-9.37-6.23l-.12-.19a11.91,11.91,0,0,1-1.87-7.55c-.09-2.24-5.83-11.55-7.54-13a2.23,2.23,0,0,0,.77.39L39.57.8c3.15,1,11.2,14.53,11,18.63a6.15,6.15,0,0,0,1,4.23l.08.12a29.62,29.62,0,0,0,6.75,3.93c6.65,3,7.18,5.32,6.9,7-.22,1.33-1.12,2.54-2.57,4.38l-.15.2.25.1a4.23,4.23,0,0,1,2.9,4,8.74,8.74,0,0,1-1,3.5l.07.09c.9,1,2,3.25.26,7.14C68,57.49,69.33,61.47,68.59,65c-.42,2-2,5.53-7.42,7.25A74.1,74.1,0,0,1,43.89,75c-1.76,2.61-3.8,6.23-3.93,8a28.41,28.41,0,0,0,.51,5.79Z"/><path class="cls-1" d="M25.37,87.58C13.54,76.14,19.19,65,24.17,55.1c2-4,4.11-8.12,5.12-12.24C32.54,29.53,19.05,13.14,18.91,13l4.61-3.84C24.16,9.9,39.08,28,35.11,44.28,34,49.07,31.7,53.51,29.53,57.81c-5.36,10.59-8.23,17.49,0,25.45Z"/><path class="cls-1" d="M5.21,67.37C4,58.88,8.51,52.45,12.49,46.78,15.32,42.76,18,39,18.22,35A23.56,23.56,0,0,0,13.3,19.28l4.49-4a29.23,29.23,0,0,1,6.42,20.1C23.87,41,20.58,45.7,17.4,50.23c-3.67,5.22-7.13,10.16-6.25,16.28Z"/></g></g></svg>