<svg xmlns="http://www.w3.org/2000/svg" viewBox="0 0 92.75 92.75"><defs><style>.cls-1{fill:#1d1d1b;}</style></defs><g id="Слой_2" data-name="Слой 2"><g id="иконки_линия" data-name="иконки линия"><path class="cls-1" d="M46.38,92.75A46.38,46.38,0,1,1,92.75,46.38,46.42,46.42,0,0,1,46.38,92.75ZM46.38,6A40.38,40.38,0,1,0,86.75,46.38,40.42,40.42,0,0,0,46.38,6Z"/><path class="cls-1" d="M42.66,66.27h0c-6.86,0-27.95-7.74-30-15.57-1.2-4.52-7.48-12.78-9.8-15.57a3,3,0,0,1-.62-2.57c2-8.82,8.75-11.4,9-11.51a3,3,0,0,1,3.07.62c2.41,2.24,9.32,8.45,12.3,10.3,1.58,1,5.21,2.11,8.72,3.22,4.21,1.32,8.55,2.69,11.34,4.31,4.15,2.42,17.44,7.34,28,8.08a3.29,3.29,0,0,1,1,.24c3.58,1.54,4.49,4.41,4.15,6.59a6.7,6.7,0,0,1-5.7,5.49l-.59,0a261.45,261.45,0,0,1-31.07-4c2.88,2.68,4.93,5.25,4.9,6.93a3.23,3.23,0,0,1-1.77,2.84A6.5,6.5,0,0,1,42.66,66.27ZM8.47,32.52C11,35.65,17,43.64,18.46,49.18c.68,2.6,11.27,8,18.87,10.13A67.51,67.51,0,0,0,25.63,51a3,3,0,0,1-1.57-2.64,2.92,2.92,0,0,1,.36-1.43,3,3,0,0,1,4.07-1.21c8.25,4.49,40.57,8.19,45.07,8.19a.93.93,0,0,0,.3-.3l-.15-.1c-10.77-.9-24.65-5.7-30-8.84-2.21-1.28-6.41-2.6-10.12-3.77-4-1.27-7.85-2.47-10.07-3.84-3.08-1.9-8.79-7-11.6-9.51A10.3,10.3,0,0,0,8.47,32.52Z"/></g></g></svg>