<?xml version="1.0" encoding="UTF-8"?>
<svg xmlns="http://www.w3.org/2000/svg" xmlns:xlink="http://www.w3.org/1999/xlink" width="810pt" height="1439.999935pt" viewBox="0 0 810 1439.999935" version="1.2">
<g id="surface1">
<rect x="0" y="0" width="810" height="1439.999935" style="fill:rgb(100%,100%,100%);fill-opacity:1;stroke:none;"/>
<rect x="0" y="0" width="810" height="1439.999935" style="fill:rgb(100%,100%,100%);fill-opacity:1;stroke:none;"/>
<rect x="0" y="0" width="810" height="1439.999935" style="fill:rgb(100%,100%,100%);fill-opacity:1;stroke:none;"/>
<path style=" stroke:none;fill-rule:nonzero;fill:#1C449C;fill-opacity:1;" d="M 320.816406 636.503906 C 327.101562 636.503906 332.214844 631.390625 332.214844 625.109375 C 332.214844 618.824219 327.101562 613.710938 320.816406 613.710938 C 314.53125 613.710938 309.417969 618.824219 309.417969 625.109375 C 309.417969 631.390625 314.53125 636.503906 320.816406 636.503906 "/>
<path style=" stroke:none;fill-rule:nonzero;fill:#1C449C;fill-opacity:1;" d="M 371 613.710938 C 364.71875 613.710938 359.605469 618.824219 359.605469 625.109375 C 359.605469 631.390625 364.71875 636.503906 371 636.503906 C 377.285156 636.503906 382.398438 631.390625 382.398438 625.109375 C 382.398438 618.824219 377.285156 613.710938 371 613.710938 "/>
<path style=" stroke:none;fill-rule:nonzero;fill:#1C449C;fill-opacity:1;" d="M 409.789062 625.109375 C 409.789062 631.390625 414.902344 636.503906 421.1875 636.503906 C 427.46875 636.503906 432.582031 631.390625 432.582031 625.109375 C 432.582031 618.824219 427.46875 613.710938 421.1875 613.710938 C 414.902344 613.710938 409.789062 618.824219 409.789062 625.109375 "/>
<path style=" stroke:none;fill-rule:nonzero;fill:#1C449C;fill-opacity:1;" d="M 304.347656 700.355469 C 304.347656 704.402344 307.625 707.683594 311.671875 707.683594 L 362.808594 707.683594 C 366.855469 707.683594 370.136719 704.402344 370.136719 700.355469 C 370.136719 696.308594 366.855469 693.027344 362.808594 693.027344 L 311.671875 693.027344 C 307.625 693.027344 304.347656 696.308594 304.347656 700.355469 "/>
<path style=" stroke:none;fill-rule:nonzero;fill:#1C449C;fill-opacity:1;" d="M 381.074219 756.980469 C 381.074219 752.933594 377.792969 749.65625 373.75 749.65625 L 311.671875 749.65625 C 307.625 749.65625 304.347656 752.933594 304.347656 756.980469 C 304.347656 761.027344 307.625 764.308594 311.671875 764.308594 L 373.75 764.308594 C 377.792969 764.308594 381.074219 761.027344 381.074219 756.980469 "/>
<path style=" stroke:none;fill-rule:nonzero;fill:#1C449C;fill-opacity:1;" d="M 311.671875 806.28125 C 307.625 806.28125 304.347656 809.5625 304.347656 813.609375 C 304.347656 817.652344 307.625 820.933594 311.671875 820.933594 L 370.753906 820.933594 C 374.800781 820.933594 378.078125 817.652344 378.078125 813.609375 C 378.078125 809.5625 374.800781 806.28125 370.753906 806.28125 L 311.671875 806.28125 "/>
<path style=" stroke:none;fill-rule:nonzero;fill:#1C449C;fill-opacity:1;" d="M 378.277344 867.347656 L 277.375 867.347656 C 266.5 867.347656 257.652344 858.503906 257.652344 847.625 L 257.652344 592.375 C 257.652344 581.496094 266.5 572.652344 277.375 572.652344 L 464.625 572.652344 C 475.5 572.652344 484.347656 581.496094 484.347656 592.375 L 484.347656 646.5 C 484.347656 650.546875 487.628906 653.828125 491.675781 653.828125 C 495.722656 653.828125 499 650.546875 499 646.5 L 499 592.375 C 499 573.421875 483.578125 558 464.625 558 L 277.375 558 C 258.421875 558 243 573.421875 243 592.375 L 243 847.625 C 243 866.578125 258.421875 882 277.375 882 L 378.277344 882 C 382.320312 882 385.601562 878.722656 385.601562 874.671875 C 385.601562 870.625 382.320312 867.347656 378.277344 867.347656 "/>
<path style=" stroke:none;fill-rule:nonzero;fill:#1C449C;fill-opacity:1;" d="M 551.773438 718.039062 L 527.882812 781.472656 C 526.960938 783.921875 527.414062 786.675781 529.070312 788.699219 C 538.925781 800.730469 544.355469 815.933594 544.355469 831.507812 C 544.355469 844.289062 540.804688 856.597656 534.066406 867.347656 L 419.414062 867.347656 C 412.671875 856.597656 409.125 844.289062 409.125 831.507812 C 409.125 815.933594 414.550781 800.730469 424.410156 788.699219 C 426.066406 786.675781 426.519531 783.921875 425.597656 781.472656 L 401.707031 718.039062 C 401.324219 717.023438 401.132812 715.964844 401.132812 714.882812 C 401.132812 699.171875 413.914062 686.390625 429.625 686.390625 L 523.855469 686.390625 C 539.566406 686.390625 552.347656 699.171875 552.347656 714.882812 C 552.347656 715.964844 552.15625 717.023438 551.773438 718.039062 Z M 567 714.882812 C 567 691.089844 547.644531 671.738281 523.855469 671.738281 L 429.625 671.738281 C 405.835938 671.738281 386.480469 691.089844 386.480469 714.882812 C 386.480469 717.734375 386.988281 720.539062 387.996094 723.203125 L 410.441406 782.804688 C 400.113281 796.859375 394.472656 813.992188 394.472656 831.507812 C 394.472656 848.578125 399.671875 864.960938 409.511719 878.898438 C 410.882812 880.84375 413.117188 882 415.496094 882 L 537.984375 882 C 540.367188 882 542.59375 880.84375 543.972656 878.898438 C 553.804688 864.960938 559.007812 848.578125 559.007812 831.507812 C 559.007812 813.992188 553.363281 796.859375 543.039062 782.804688 L 565.484375 723.203125 C 566.492188 720.539062 567 717.734375 567 714.882812 "/>
<path style=" stroke:none;fill-rule:nonzero;fill:#1C449C;fill-opacity:1;" d="M 503.539062 753.71875 C 494.9375 750.742188 485.957031 749.238281 476.738281 749.238281 C 467.523438 749.238281 458.539062 750.742188 449.941406 753.722656 L 436.847656 718.953125 L 516.632812 718.953125 Z M 523.855469 704.296875 L 429.625 704.296875 C 425.96875 704.296875 422.507812 706.238281 420.597656 709.359375 C 419.417969 711.285156 419.195312 713.652344 419.992188 715.765625 L 438.859375 765.875 C 439.574219 767.773438 441.046875 769.292969 442.921875 770.066406 C 444.796875 770.839844 446.90625 770.800781 448.753906 769.960938 C 457.589844 765.933594 467.007812 763.894531 476.738281 763.894531 C 486.472656 763.894531 495.890625 765.933594 504.722656 769.960938 C 505.6875 770.398438 506.722656 770.621094 507.761719 770.621094 C 508.710938 770.621094 509.660156 770.4375 510.558594 770.066406 C 512.433594 769.292969 513.902344 767.773438 514.617188 765.875 L 533.488281 715.765625 C 534.285156 713.652344 534.0625 711.285156 532.878906 709.359375 C 530.96875 706.238281 527.511719 704.296875 523.855469 704.296875 "/>
</g>
</svg>
