<svg xmlns="http://www.w3.org/2000/svg" viewBox="0 0 92.75 92.75"><defs><style>.cls-1{fill:#1d1d1b;}</style></defs><g id="Слой_2" data-name="Слой 2"><g id="иконки_линия" data-name="иконки линия"><path class="cls-1" d="M46.38,92.75A46.38,46.38,0,1,1,92.75,46.38,46.42,46.42,0,0,1,46.38,92.75ZM46.38,6A40.38,40.38,0,1,0,86.75,46.38,40.42,40.42,0,0,0,46.38,6Z"/><path class="cls-1" d="M58.37,72.84a3,3,0,0,1-2.26-1c-.4-.46-9.65-11.33-.31-26.69,7.08-11.65.37-19.55.31-19.63a3,3,0,0,1,4.51-3.95c.4.46,9.64,11.33.31,26.69-7.08,11.65-.38,19.55-.31,19.63a3,3,0,0,1-2.25,5Z"/><path class="cls-1" d="M45.26,72.84a3,3,0,0,1-2.26-1c-.4-.46-9.64-11.33-.3-26.69,7.07-11.65.37-19.55.3-19.63a3,3,0,0,1,4.52-3.95c.4.46,9.64,11.33.3,26.69-7.08,11.65-.37,19.55-.3,19.63a3,3,0,0,1-2.26,5Z"/><path class="cls-1" d="M32.15,72.84a3,3,0,0,1-2.26-1c-.39-.46-9.64-11.33-.3-26.69,7.08-11.65.37-19.55.3-19.63a3,3,0,0,1,4.52-3.95c.4.46,9.64,11.33.31,26.69-7.08,11.65-.38,19.55-.31,19.63a3,3,0,0,1-2.26,5Z"/></g></g></svg>