<svg xmlns="http://www.w3.org/2000/svg" viewBox="0 0 92.75 92.75"><defs><style>.cls-1{fill:#1d1d1b;}</style></defs><g id="Слой_2" data-name="Слой 2"><g id="иконки_линия" data-name="иконки линия"><path class="cls-1" d="M46.38,92.75A46.38,46.38,0,1,1,92.75,46.38,46.42,46.42,0,0,1,46.38,92.75ZM46.38,6A40.38,40.38,0,1,0,86.75,46.38,40.42,40.42,0,0,0,46.38,6Z"/><path class="cls-1" d="M46.38,65.16A18.79,18.79,0,1,1,65.16,46.38,18.81,18.81,0,0,1,46.38,65.16Zm0-31.57A12.79,12.79,0,1,0,59.16,46.38,12.81,12.81,0,0,0,46.38,33.59Z"/><path class="cls-1" d="M46.38,33.59a3,3,0,0,1-3-3V17.29a3,3,0,0,1,6,0v13.3A3,3,0,0,1,46.38,33.59Z"/><path class="cls-1" d="M46.38,78.46a3,3,0,0,1-3-3V62.16a3,3,0,0,1,6,0v13.3A3,3,0,0,1,46.38,78.46Z"/><path class="cls-1" d="M57.54,38.22a3,3,0,0,1-2.12-5.12l9.4-9.41a3,3,0,0,1,4.24,4.24l-9.4,9.41A3,3,0,0,1,57.54,38.22Z"/><path class="cls-1" d="M25.81,69.94a3,3,0,0,1-2.12-5.12l9.41-9.4a3,3,0,0,1,4.24,4.24l-9.41,9.4A3,3,0,0,1,25.81,69.94Z"/><path class="cls-1" d="M62.16,49.38a3,3,0,0,1,0-6h13.3a3,3,0,0,1,0,6Z"/><path class="cls-1" d="M30.59,49.38H17.29a3,3,0,0,1,0-6h13.3a3,3,0,1,1,0,6Z"/><path class="cls-1" d="M66.94,69.94a3,3,0,0,1-2.12-.88l-9.41-9.4a3,3,0,0,1,4.25-4.24l9.4,9.4a3,3,0,0,1,0,4.24A3,3,0,0,1,66.94,69.94Z"/><path class="cls-1" d="M35.22,38.22a3,3,0,0,1-2.13-.88l-9.4-9.41a3,3,0,0,1,4.24-4.24l9.41,9.41a3,3,0,0,1,0,4.24A3,3,0,0,1,35.22,38.22Z"/><path class="cls-1" d="M57.54,38.22a3,3,0,0,1-2.12-5.12l9.4-9.41a3,3,0,0,1,4.24,4.24l-9.4,9.41A3,3,0,0,1,57.54,38.22Z"/><path class="cls-1" d="M25.81,69.94a3,3,0,0,1-2.12-5.12l9.41-9.4a3,3,0,0,1,4.24,4.24l-9.41,9.4A3,3,0,0,1,25.81,69.94Z"/><path class="cls-1" d="M66.94,69.94a3,3,0,0,1-2.12-.88l-9.41-9.4a3,3,0,0,1,4.25-4.24l9.4,9.4a3,3,0,0,1,0,4.24A3,3,0,0,1,66.94,69.94Z"/><path class="cls-1" d="M35.22,38.22a3,3,0,0,1-2.13-.88l-9.4-9.41a3,3,0,0,1,4.24-4.24l9.41,9.41a3,3,0,0,1,0,4.24A3,3,0,0,1,35.22,38.22Z"/></g></g></svg>