<svg xmlns="http://www.w3.org/2000/svg" viewBox="0 0 92.75 92.75"><defs><style>.cls-1{fill:#1d1d1b;}</style></defs><g id="Слой_2" data-name="Слой 2"><g id="иконки_линия" data-name="иконки линия"><path class="cls-1" d="M46.38,92.75A46.38,46.38,0,1,1,92.75,46.38,46.42,46.42,0,0,1,46.38,92.75ZM46.38,6A40.38,40.38,0,1,0,86.75,46.38,40.42,40.42,0,0,0,46.38,6Z"/><path class="cls-1" d="M86.69,36.21a15.29,15.29,0,0,1-9.79-3.38c-1.89-1.33-3.25-2.29-6.34-2.29s-4.45,1-6.34,2.29a15.87,15.87,0,0,1-19.58,0c-1.89-1.33-3.25-2.29-6.33-2.29s-4.45,1-6.34,2.29a15.27,15.27,0,0,1-9.79,3.38,15.27,15.27,0,0,1-9.79-3.38c-1.89-1.33-3.25-2.29-6.33-2.29v-6a15.29,15.29,0,0,1,9.78,3.38c1.89,1.33,3.26,2.29,6.34,2.29s4.45-1,6.34-2.29a15.87,15.87,0,0,1,19.58,0c1.89,1.33,3.25,2.29,6.33,2.29s4.45-1,6.34-2.29a15.88,15.88,0,0,1,19.59,0c1.89,1.33,3.25,2.29,6.33,2.29Z"/><path class="cls-1" d="M89.75,51.56a16.87,16.87,0,0,1-10.31-3.32,11.72,11.72,0,0,0-14.08,0,17.68,17.68,0,0,1-20.63,0,11,11,0,0,0-7-2.35,11,11,0,0,0-7,2.35,16.92,16.92,0,0,1-10.32,3.32A16.87,16.87,0,0,1,10,48.24a11,11,0,0,0-7-2.35v-6a16.86,16.86,0,0,1,10.31,3.33,11,11,0,0,0,7,2.34,11,11,0,0,0,7-2.34,16.86,16.86,0,0,1,10.31-3.33A16.87,16.87,0,0,1,48,43.22a11.75,11.75,0,0,0,14.07,0,17.66,17.66,0,0,1,20.64,0,11,11,0,0,0,7,2.34Z"/><path class="cls-1" d="M87.2,66.91a15.57,15.57,0,0,1-9.88-3.37c-1.92-1.33-3.31-2.3-6.45-2.3s-4.54,1-6.46,2.3a16.15,16.15,0,0,1-19.75,0c-1.92-1.33-3.31-2.3-6.45-2.3s-4.54,1-6.46,2.3a15.54,15.54,0,0,1-9.87,3.37A15.59,15.59,0,0,1,12,63.54c-1.92-1.34-3.3-2.3-6.45-2.3v-6a15.57,15.57,0,0,1,9.88,3.37c1.92,1.34,3.31,2.3,6.45,2.3s4.53-1,6.45-2.3a15.55,15.55,0,0,1,9.88-3.37,15.54,15.54,0,0,1,9.87,3.37c1.92,1.34,3.31,2.3,6.46,2.3s4.53-1,6.45-2.3a16.15,16.15,0,0,1,19.75,0c1.93,1.34,3.31,2.3,6.46,2.3Z"/></g></g></svg>