<svg width="112" height="112" viewBox="0 0 112 112" fill="none" xmlns="http://www.w3.org/2000/svg">
<g clip-path="url(#clip0)">
<path d="M98 16.3333C97.4027 16.3333 96.8053 16.1047 96.348 15.652C95.438 14.742 95.438 13.2627 96.348 12.3527L103.348 5.35267C104.258 4.44267 105.737 4.44267 106.647 5.35267C107.557 6.26267 107.557 7.742 106.647 8.652L99.6473 15.652C99.1947 16.1047 98.5973 16.3333 98 16.3333Z" fill="#E2E2E2"/>
<path d="M33.8333 80.5C33.236 80.5 32.6387 80.2714 32.1813 79.8187C31.2713 78.9087 31.2713 77.4294 32.1813 76.5194L76.5147 32.186C77.4247 31.276 78.904 31.276 79.814 32.186C80.724 33.096 80.724 34.5754 79.814 35.4854L35.4807 79.8187C35.028 80.2714 34.4307 80.5 33.8333 80.5Z" fill="#E2E2E2"/>
<path d="M7 107.333C6.40266 107.333 5.80533 107.105 5.348 106.652C4.438 105.742 4.438 104.263 5.348 103.353L12.348 96.3527C13.258 95.4427 14.7373 95.4427 15.6473 96.3527C16.5573 97.2627 16.5573 98.742 15.6473 99.652L8.64733 106.652C8.19466 107.105 7.59733 107.333 7 107.333Z" fill="#E2E2E2"/>
<path d="M44.7347 109.667C42.8633 109.667 41.104 108.939 39.7833 107.618L4.38666 72.2166C3.06133 70.896 2.33333 69.1366 2.33333 67.2653C2.33333 65.3986 3.06133 63.6393 4.382 62.314L7.11666 59.5793C9.83733 56.854 14.2847 56.8493 17.0147 59.5793L52.416 94.9806C55.1413 97.7106 55.1413 102.153 52.416 104.879L49.6813 107.613C48.3607 108.939 46.6013 109.667 44.7347 109.667ZM12.068 62.202C11.4707 62.202 10.8733 62.4307 10.416 62.8833L7.68133 65.618C7.24266 66.0566 7 66.6446 7 67.2653C7 67.8906 7.24266 68.474 7.68133 68.9126L43.0827 104.314C43.9647 105.201 45.5 105.196 46.382 104.314L49.1167 101.579C50.0267 100.669 50.0267 99.19 49.1167 98.28L13.72 62.8787C13.2627 62.426 12.6653 62.202 12.068 62.202Z" fill="#E2E2E2"/>
<path d="M28.4013 112C26.53 112 24.7707 111.272 23.45 109.951L2.05333 88.5501C0.728 87.2294 0 85.4701 0 83.5987C0 81.7321 0.728 79.9727 2.04867 78.6474L8.08267 72.6134C8.99267 71.7034 10.472 71.7034 11.382 72.6134C12.292 73.5234 12.292 75.0027 11.382 75.9127L5.348 81.9467C4.90933 82.3901 4.66667 82.9781 4.66667 83.5987C4.66667 84.2241 4.90933 84.8074 5.348 85.2461L26.7493 106.647C27.6313 107.529 29.1667 107.529 30.0487 106.647L36.0827 100.613C36.9927 99.7034 38.472 99.7034 39.382 100.613C40.292 101.523 40.292 103.003 39.382 103.913L33.348 109.947C32.0273 111.272 30.268 112 28.4013 112Z" fill="#E2E2E2"/>
<path d="M99.932 54.4647C98.14 54.4647 96.348 53.7833 94.9807 52.4207L59.5793 17.0193C56.854 14.2893 56.854 9.84668 59.5793 7.12135L62.314 4.38668C64.96 1.74068 69.5753 1.74535 72.2167 4.38668L107.613 39.788C108.934 41.1087 109.662 42.868 109.662 44.7393C109.662 46.606 108.934 48.3653 107.613 49.6907L104.879 52.4253C103.521 53.7833 101.724 54.4647 99.932 54.4647ZM67.2653 7.00001C66.6447 7.00001 66.0567 7.24268 65.6133 7.68135L62.8787 10.416C61.9687 11.326 61.9687 12.8053 62.8787 13.7153L98.2753 49.1167C99.1853 50.022 100.665 50.022 101.575 49.1167L104.309 46.382C104.748 45.9387 104.991 45.3553 104.991 44.73C104.991 44.1047 104.748 43.5213 104.309 43.0827L68.908 7.68135C68.474 7.24268 67.8907 7.00001 67.2653 7.00001Z" fill="#E2E2E2"/>
<path d="M102.265 40.068C101.668 40.068 101.071 39.8393 100.613 39.3866C99.7033 38.4766 99.7033 36.9973 100.613 36.0873L106.647 30.0533C107.091 29.61 107.333 29.022 107.333 28.4013C107.333 27.776 107.091 27.1926 106.652 26.754L85.2507 5.35264C84.3687 4.47531 82.838 4.47531 81.9513 5.35264L75.9173 11.3866C75.0073 12.2966 73.528 12.2966 72.618 11.3866C71.708 10.4766 71.708 8.99731 72.618 8.08731L78.652 2.05331C81.298 -0.592693 85.9133 -0.588026 88.5547 2.05331L109.951 23.4546C111.272 24.7706 112 26.53 112 28.4013C112 30.268 111.272 32.0273 109.951 33.3526L103.917 39.3866C103.46 39.8393 102.863 40.068 102.265 40.068Z" fill="#E2E2E2"/>
</g>
<defs>
<clipPath id="clip0">
<rect width="112" height="112" fill="white"/>
</clipPath>
</defs>
</svg>
