<svg width="134" height="134" viewBox="0 0 134 134" fill="none" xmlns="http://www.w3.org/2000/svg">
<g clip-path="url(#clip0)">
<path d="M25.945 37.8338L27.7668 37.425C28.7723 37.1993 29.4047 36.2009 29.1791 35.1954C28.9532 34.1891 27.9548 33.5566 26.9493 33.7823L25.1276 34.1911C24.1221 34.4167 23.4896 35.4151 23.7155 36.4215C23.9411 37.427 24.9395 38.0594 25.945 37.8338Z" fill="#E2E2E2"/>
<path d="M35.052 35.79L58.7295 30.4765C59.735 30.2509 60.3674 29.2525 60.1418 28.247C59.916 27.2407 58.9176 26.6082 57.9121 26.8339L34.2346 32.1473C33.2291 32.373 32.5958 33.3716 32.8217 34.3779C33.0473 35.3834 34.0465 36.0156 35.052 35.79Z" fill="#E2E2E2"/>
<path d="M105.83 61.9944L101.872 62.8826C101.86 62.8854 101.846 62.8884 101.834 62.8912C101.005 63.0788 100.209 63.3863 99.4694 63.8045C99.4109 63.8325 99.354 63.8637 99.2994 63.8978C98.4098 64.4486 97.6273 65.1567 96.9905 65.987C96.4455 61.7088 97.1548 55.1603 103.984 48.7455C104.704 48.0348 104.727 46.8781 104.034 46.1395C103.34 45.4011 102.185 45.3495 101.429 46.0244C97.1353 49.778 94.2802 54.9086 93.3528 60.5358C93.1853 60.2423 93.0129 59.9578 92.835 59.6957C91.3844 57.5008 89.4031 55.7079 87.0741 54.4844L80.1772 23.7509C79.4999 20.7328 76.5047 18.8355 73.4874 19.5126L65.867 21.2227C64.6093 19.2202 62.2296 18.2234 59.9203 18.7311L50.163 20.9208C47.6528 16.8996 42.8758 14.9022 38.2502 15.9402C33.6246 16.9783 30.1592 20.8254 29.6079 25.5335L19.8506 27.7232C17.5459 28.2509 15.8202 30.1689 15.5397 32.5166L7.91925 34.2267C4.9011 34.904 3.00384 37.8992 3.68114 40.9173L23.2999 128.341C23.9772 131.359 26.9723 133.257 29.9905 132.579L95.5586 117.865C96.4101 117.675 97.2042 117.284 97.8737 116.724C99.6246 116.741 101.373 116.558 103.082 116.177L109.891 114.649C123.077 111.69 131.24 97.8456 128.084 83.7828L126.315 75.8964C124.136 66.1891 114.946 59.9487 105.83 61.9944ZM89.7217 61.7639C90.516 63.0867 91.1867 64.4792 91.7248 65.9251C91.5255 65.8876 91.3395 65.8198 91.1426 65.801C90.1741 65.6803 89.1918 65.7282 88.2397 65.9419C88.2247 65.9452 88.2138 65.9477 88.1996 65.9508L84.2544 66.8362C83.755 66.9483 83.2715 67.0927 82.7933 67.2481C82.7454 67.2457 82.7055 67.2241 82.656 67.2255C76.3571 67.371 74.8623 60.3197 74.525 57.7515C75.6571 57.3565 76.8114 57.0291 77.9821 56.7708L78.0205 56.7622C82.5886 55.78 87.2803 57.7878 89.7234 61.7714L89.7217 61.7639ZM81.0304 109.647L33.0017 120.425L15.8351 43.9286L17.992 43.4445C19.2488 45.4473 21.6288 46.4448 23.9378 45.9363L64.0075 36.9443C66.3124 36.4174 68.0379 34.4985 68.3193 32.1506L70.4754 31.6668L75.3862 53.5501C70.7198 54.7732 70.7019 56.153 70.7023 56.9393C70.902 60.8301 72.7169 67.3919 77.8393 69.9213C72.462 74.3183 70.0677 81.4008 71.6744 88.1582L73.4441 96.0446C74.5903 101.222 77.2278 105.951 81.0304 109.647ZM76.5345 24.5684L82.9306 53.0699C81.6552 52.8421 80.3552 52.7817 79.064 52.8894L74.118 30.8493C73.6665 28.8375 71.6697 27.5727 69.6579 28.0241L67.837 28.4328L67.0196 24.7901L74.3048 23.1553C75.3103 22.9296 76.3087 23.562 76.5345 24.5684ZM20.668 31.3658L31.7785 28.8725C31.8381 28.8495 31.8954 28.8235 31.9517 28.7934C32.0633 28.756 32.1699 28.7085 32.2717 28.6506C32.3799 28.5904 32.4811 28.5187 32.5741 28.4374C32.8403 28.2069 33.033 27.9027 33.1276 27.5635C33.1631 27.4444 33.1855 27.322 33.1937 27.1984C33.2089 27.1372 33.2205 27.0759 33.2283 27.0129C33.1602 23.4666 35.5976 20.3616 39.0585 19.5849C42.5202 18.8081 46.0498 20.574 47.5036 23.8094C47.5401 23.8704 47.5803 23.9288 47.6237 23.9856C47.6719 24.0676 47.7257 24.1475 47.7847 24.2227C47.8719 24.3266 47.9718 24.4206 48.0803 24.5022C48.1484 24.5597 48.2195 24.6111 48.2947 24.6573C48.424 24.7264 48.5604 24.7798 48.7017 24.8164C48.9967 24.9332 49.3222 24.9513 49.6273 24.8671L60.7378 22.3738C61.7441 22.1479 62.7425 22.7804 62.9683 23.7867L64.6032 31.0719C64.8288 32.0774 64.1964 33.0758 63.1901 33.3016L23.1204 42.2937C22.1149 42.5193 21.1165 41.8869 20.8908 40.8814L19.2559 33.5961C19.0301 32.5898 19.6625 31.5914 20.668 31.3658ZM29.1731 128.937C28.1667 129.163 27.1683 128.53 26.9425 127.524L7.32377 40.0999C7.09794 39.0936 7.73036 38.0952 8.73669 37.8694L16.0219 36.2345L16.8394 39.8771L15.0177 40.2859C13.0058 40.7374 11.741 42.7342 12.1925 44.746L29.3591 121.243C29.8105 123.255 31.8073 124.52 33.8191 124.068L84.7401 112.641C86.385 113.727 88.1517 114.615 90.0055 115.285L29.1731 128.937ZM124.442 84.6003C127.146 96.6504 120.25 108.498 109.073 111.006L102.265 112.534C91.0877 115.042 79.7919 107.281 77.0868 95.2272L75.317 87.3408C73.5893 79.642 77.965 72.0737 85.0718 70.4788L89.0879 69.5776C89.6102 69.4656 90.147 69.4424 90.6776 69.5081C92.9856 69.8808 94.8177 71.6528 95.2677 73.9469L95.6728 75.752C95.8986 76.7583 96.897 77.3908 97.9033 77.1649C98.9088 76.9393 99.5412 75.9409 99.3154 74.9346L98.9092 73.1245C98.3305 70.8619 99.2185 68.4776 101.138 67.1466L101.22 67.102C101.657 66.8445 102.13 66.6543 102.623 66.5367L106.645 65.6341C113.754 64.0422 120.944 69.0151 122.672 76.7139L124.442 84.6003Z" fill="#E2E2E2"/>
<path d="M83.3726 74.7843C83.1175 74.9352 77.1865 78.6246 79.094 87.1247C79.3198 88.1311 80.3182 88.7635 81.3245 88.5377C82.3301 88.312 82.9625 87.3136 82.7367 86.3073C81.4395 80.5268 85.1248 78.0928 85.3143 77.9732C86.1951 77.4376 86.4748 76.288 85.9383 75.4074C85.4018 74.5268 84.2532 74.2477 83.3726 74.7843Z" fill="#E2E2E2"/>
<path d="M30.628 50.1744L25.1636 51.4007C23.1517 51.8522 21.8868 53.849 22.3383 55.8608L23.5646 61.3253C24.0161 63.3371 26.0129 64.602 28.0247 64.1505L33.4892 62.9242C35.501 62.4727 36.7659 60.4759 36.3144 58.4641L35.0881 52.9996C34.6366 50.9878 32.6398 49.7229 30.628 50.1744ZM27.2073 60.5078L25.981 55.0434L31.4454 53.8171L32.6717 59.2815L27.2073 60.5078Z" fill="#E2E2E2"/>
<path d="M34.3066 66.5666L28.8421 67.7929C26.8303 68.2444 25.5654 70.2412 26.0169 72.253L27.243 77.7166C27.6945 79.7285 29.6915 80.9942 31.7033 80.5427L37.1678 79.3164C39.1796 78.865 40.4443 76.8673 39.9928 74.8555L38.7667 69.3919C38.3152 67.38 36.3184 66.1151 34.3066 66.5666ZM30.8857 76.8992L29.6596 71.4356L35.124 70.2093L36.3501 75.6729L30.8857 76.8992Z" fill="#E2E2E2"/>
<path d="M37.9852 82.9591L32.5207 84.1854C30.5089 84.6368 29.244 86.6336 29.6955 88.6455L30.9216 94.1091C31.3731 96.1209 33.3699 97.3858 35.3817 96.9343L40.8462 95.7081C42.858 95.2566 44.1229 93.2598 43.6714 91.2479L42.4453 85.7843C41.9938 83.7725 39.997 82.5076 37.9852 82.9591ZM34.5643 93.2916L33.3382 87.828L38.8026 86.6018L40.0287 92.0654L34.5643 93.2916Z" fill="#E2E2E2"/>
<path d="M41.6635 99.3504L36.1991 100.577C34.1872 101.028 32.9224 103.025 33.3738 105.037L34.6001 110.501C35.0516 112.513 37.0484 113.778 39.0603 113.327L44.5247 112.1C46.5365 111.649 47.8014 109.652 47.3499 107.64L46.1236 102.176C45.6722 100.164 43.6754 98.899 41.6635 99.3504ZM38.2428 109.684L37.0165 104.219L42.481 102.993L43.7072 108.458L38.2428 109.684Z" fill="#E2E2E2"/>
<path d="M41.7786 57.2378L67.277 51.5158C68.2833 51.2899 68.9157 50.2915 68.6899 49.2852C68.4642 48.2797 67.4659 47.6473 66.4595 47.8731L40.9611 53.5952C39.9548 53.821 39.3224 54.8194 39.548 55.8249C39.7739 56.8313 40.7722 57.4637 41.7786 57.2378Z" fill="#E2E2E2"/>
<path d="M64.6735 65.4909L44.6395 69.9867C43.6332 70.2125 43.0007 71.2109 43.2266 72.2172C43.4522 73.2227 44.4506 73.8551 45.4569 73.6293L65.491 69.1335C66.4973 68.9077 67.1297 67.9093 66.9041 66.9038C66.6782 65.8975 65.6799 65.265 64.6735 65.4909Z" fill="#E2E2E2"/>
<path d="M64.7095 82.7005L48.3181 86.3789C47.3117 86.6047 46.6793 87.6031 46.9052 88.6094C47.1308 89.6149 48.1292 90.2474 49.1355 90.0215L65.5269 86.3431C66.5333 86.1173 67.1657 85.1189 66.94 84.1134C66.7142 83.1071 65.7158 82.4747 64.7095 82.7005Z" fill="#E2E2E2"/>
<path d="M68.3881 99.0927L51.9967 102.771C50.9903 102.997 50.3579 103.995 50.5837 105.002C50.8094 106.007 51.8078 106.64 52.8141 106.414L69.2055 102.735C70.2118 102.51 70.8443 101.511 70.6186 100.506C70.3928 99.4993 69.3944 98.8669 68.3881 99.0927Z" fill="#E2E2E2"/>
</g>
<defs>
<clipPath id="clip0">
<rect width="112" height="112" fill="white" transform="translate(0 24.5239) rotate(-12.6482)"/>
</clipPath>
</defs>
</svg>
