<svg width="146" height="146" viewBox="0 0 146 146" fill="none" xmlns="http://www.w3.org/2000/svg">
<g clip-path="url(#clip0)">
<path d="M68.1682 59.8487C62.5067 61.9536 56.1887 59.0612 54.0837 53.3998C51.9787 47.7384 54.8721 41.4199 60.5336 39.315C66.195 37.21 72.5134 40.1034 74.6184 45.7648C76.7234 51.4263 73.8296 57.7437 68.1682 59.8487ZM61.806 42.7371C58.0323 44.1402 56.102 48.3518 57.5058 52.1274C58.9093 55.902 63.1222 57.8296 66.8958 56.4266C70.6694 55.0235 72.5987 50.8122 71.1953 47.0376C69.7915 43.262 65.5796 41.334 61.806 42.7371Z" fill="#E2E2E2"/>
<path d="M85.0868 67.8561C84.5913 68.0403 84.0195 68.01 83.5273 67.7204C82.6571 67.2114 82.364 66.0933 82.8739 65.2228C82.9839 65.0359 83.0575 64.8291 83.0952 64.61L88.5663 29.3078C88.6514 28.8025 88.5417 28.3183 88.2594 27.9218C87.9767 27.5242 87.5565 27.2603 87.0747 27.1786C86.0802 27.0067 85.1388 27.6822 84.9715 28.6739L80.1746 59.6263C80.0192 60.6202 79.0846 61.3021 78.0898 61.1504C77.0929 60.9961 76.4105 60.0629 76.5648 59.066L81.3671 28.0893C81.8756 25.0894 84.7061 23.0741 87.6843 23.5784C89.1282 23.8228 90.3892 24.6156 91.2368 25.8072C92.0848 26.9998 92.4161 28.4515 92.1714 29.8944L86.7006 65.1942C86.5851 65.8758 86.3601 66.4966 86.0263 67.0677C85.8045 67.4455 85.4677 67.7145 85.0868 67.8561Z" fill="#E2E2E2"/>
<path d="M56.5037 138.879C55.2112 139.359 53.7405 139.354 52.3866 138.755C51.0485 138.163 50.0217 137.086 49.495 135.72C48.9677 134.356 49.0044 132.869 49.5965 131.53L60.9533 104.888C61.3496 103.96 62.4213 103.527 63.3482 103.925C64.2763 104.32 64.7073 105.392 64.3124 106.32L52.9454 132.986C52.5268 133.929 52.9446 135.01 53.8649 135.417C54.7849 135.826 55.8636 135.406 56.2741 134.487L67.7444 107.578C68.1401 106.652 69.2127 106.218 70.1396 106.616C71.0677 107.011 71.4988 108.083 71.1038 109.011L59.622 135.944C58.9929 137.36 57.8442 138.38 56.5037 138.879Z" fill="#E2E2E2"/>
<path d="M61.1486 76.7476C60.7658 76.89 60.3326 76.9061 59.9169 76.762C59.299 76.5482 58.7281 76.2266 58.2199 75.807L30.9754 52.623C28.6687 50.7145 28.342 47.255 30.2657 44.926C32.1934 42.5988 35.6515 42.2715 37.9787 44.1992L61.8697 64.5298C62.6382 65.1847 62.7308 66.3361 62.0768 67.1042C61.4229 67.8723 60.2728 67.9655 59.5038 67.3119L35.6308 46.9969C34.876 46.3726 33.722 46.4852 33.0786 47.2548C32.4375 48.0304 32.5474 49.1832 33.3223 49.8257L60.5655 73.0091C60.7161 73.1325 60.9056 73.2404 61.1076 73.3101C62.0616 73.6397 62.5672 74.6788 62.2376 75.6328C62.0527 76.1697 61.6421 76.5642 61.1486 76.7476Z" fill="#E2E2E2"/>
<path d="M118.017 115.329C117.737 115.433 117.447 115.516 117.144 115.574C115.706 115.851 114.248 115.553 113.036 114.733C111.826 113.915 111.004 112.671 110.728 111.236L107.319 93.5925L100.537 93.1696C99.5306 93.1068 98.7648 92.2403 98.8285 91.2336C98.8909 90.2263 99.7561 89.4599 100.764 89.5242L108.957 90.0354C109.787 90.088 110.479 90.6946 110.635 91.5113L114.313 110.542C114.405 111.021 114.679 111.436 115.083 111.709C115.486 111.983 115.973 112.081 116.452 111.989C117.454 111.796 118.087 110.829 117.897 109.85L113.685 88.0457C113.527 87.2274 112.838 86.62 112.008 86.5697L99.7275 85.8038C98.7212 85.7411 97.9554 84.8745 98.0191 83.8678C98.0815 82.8605 98.9484 82.0958 99.9547 82.1585L112.235 82.9244C114.726 83.0804 116.797 84.9015 117.271 87.3524L121.483 109.159C121.991 111.799 120.534 114.393 118.017 115.329Z" fill="#E2E2E2"/>
<path d="M74.5085 110.83C74.0777 110.991 73.5994 110.981 73.1729 110.805L59.6822 105.21C59.2097 105.012 58.8419 104.629 58.6665 104.148C58.492 103.667 58.526 103.135 58.7621 102.681L65.5322 89.6498L57.395 72.7579C56.1078 69.3201 57.7862 65.6568 61.0673 64.4369L76.5418 58.6834C79.8239 57.4631 83.4868 59.1404 84.7071 62.4225C84.7289 62.4813 84.7472 62.5425 84.7642 62.603L88.8511 78.433L99.2688 78.875C100.232 78.9157 100.997 79.699 101.016 80.6639L101.269 93.5306C101.279 94.0426 101.074 94.5348 100.702 94.888C100.332 95.2408 99.8304 95.4239 99.3175 95.3873L81.7471 94.1698L75.5716 109.79C75.3908 110.245 75.0357 110.609 74.5851 110.8C74.5594 110.811 74.5339 110.821 74.5085 110.83ZM62.9197 102.599L72.8569 106.721L78.8431 91.5839C79.1358 90.8454 79.8722 90.3832 80.6669 90.4343L97.5793 91.6056L97.3994 82.4499L87.3437 82.0227C86.5407 81.988 85.855 81.4327 85.6535 80.6539L81.2552 63.6179C80.7075 62.2735 79.184 61.5962 77.8141 62.1055L62.3397 67.859C60.9444 68.3778 60.2325 69.9342 60.7513 71.3295L69.2174 88.887C69.4668 89.405 69.4591 90.0108 69.193 90.521L62.9197 102.599Z" fill="#E2E2E2"/>
<path d="M94.1204 24.8789L25.6731 50.3281C24.7282 50.6794 23.6782 50.1994 23.3265 49.2535C22.9748 48.3077 23.4558 47.2573 24.4007 46.906L92.848 21.4568C93.7939 21.1051 94.8443 21.5861 95.196 22.5319C95.5476 23.4778 95.0663 24.5272 94.1204 24.8789Z" fill="#E2E2E2"/>
<path d="M30.7629 64.0177L25.6302 65.926C24.6844 66.2777 23.6343 65.7977 23.2827 64.8518L13.103 37.4729C12.7513 36.527 13.2323 35.4767 14.1781 35.125L19.3108 33.2166C20.2567 32.8649 21.3071 33.3459 21.6588 34.2918L31.8385 61.6707C32.1901 62.6166 31.7088 63.666 30.7629 64.0177ZM26.0684 61.8679L27.78 61.2315L18.8726 37.2747L17.1611 37.9111L26.0684 61.8679Z" fill="#E2E2E2"/>
<path d="M25.6302 65.926L20.4965 67.8347C19.5516 68.186 18.5007 67.7064 18.149 66.7605L7.96928 39.3816C7.61761 38.4357 8.09959 37.385 9.04447 37.0337L14.1781 35.1249C15.123 34.7736 16.1734 35.2546 16.5251 36.2005L26.7048 63.5794C27.0564 64.5253 26.5751 65.5747 25.6302 65.926ZM20.9347 63.7766L22.6463 63.1402L13.739 39.1834L12.0274 39.8198L20.9347 63.7766Z" fill="#E2E2E2"/>
<path d="M109.478 34.7509L104.344 36.6597C103.399 37.011 102.349 36.531 101.997 35.5851L91.8176 8.20618C91.466 7.26032 91.947 6.20994 92.8918 5.85863L98.0255 3.94989C98.9704 3.59858 100.022 4.07922 100.373 5.02507L110.553 32.404C110.905 33.3499 110.422 34.3996 109.478 34.7509ZM104.783 32.6012L106.495 31.9648L97.5873 8.00801L95.8758 8.64438L104.783 32.6012Z" fill="#E2E2E2"/>
<path d="M104.344 36.6596L99.2103 38.5684C98.2654 38.9197 97.2154 38.4397 96.8637 37.4938L86.684 10.1149C86.3323 9.16901 86.8133 8.11863 87.7582 7.76732L92.8918 5.85859C93.8367 5.50728 94.8881 5.98791 95.2398 6.93377L105.419 34.3127C105.771 35.2586 105.289 36.3083 104.344 36.6596ZM99.6494 34.5099L101.361 33.8735L92.4537 9.91671L90.7421 10.5531L99.6494 34.5099Z" fill="#E2E2E2"/>
<path d="M15.4067 54.1452L10.273 56.0539C9.32814 56.4053 8.27714 55.9256 7.92546 54.9797C7.57378 54.0339 8.05577 52.9831 9.00064 52.6318L14.1343 50.7231C15.0792 50.3718 16.1296 50.8528 16.4813 51.7986C16.8329 52.7445 16.3516 53.7939 15.4067 54.1452Z" fill="#E2E2E2"/>
<path d="M109.521 19.1528L104.388 21.0615C103.443 21.4128 102.393 20.9328 102.041 19.9869C101.689 19.0411 102.17 17.9907 103.115 17.6394L108.249 15.7306C109.194 15.3793 110.245 15.86 110.597 16.8058C110.949 17.7517 110.466 18.8015 109.521 19.1528Z" fill="#E2E2E2"/>
</g>
<defs>
<clipPath id="clip0">
<rect width="112" height="112" fill="white" transform="translate(0.994766 40.0266) rotate(-20.3955)"/>
</clipPath>
</defs>
</svg>
