<svg width="136" height="136" viewBox="0 0 136 136" fill="none" xmlns="http://www.w3.org/2000/svg">
<g clip-path="url(#clip0)">
<path d="M65.4227 48.6511C64.4502 52.5093 66.7969 56.4377 70.6551 57.4102C74.5132 58.3826 78.4416 56.0359 79.4141 52.1778C80.3866 48.3196 78.0398 44.3912 74.1817 43.4187C74.0907 43.3958 74.0011 43.3974 73.911 43.3784L73.6347 37.1688L70.0303 37.3298L70.3074 43.5433C67.9793 44.2641 66.0605 46.1204 65.4227 48.6511ZM73.3 46.9166C75.2291 47.4028 76.4025 49.367 75.9162 51.2961C75.43 53.2252 73.4658 54.3985 71.5367 53.9123C69.6076 53.4261 68.4343 51.4619 68.9205 49.5328C69.4067 47.6037 71.371 46.4304 73.3 46.9166Z" fill="#E2E2E2"/>
<path d="M111.813 100.746L117.16 79.5334L113.354 79.8725L117.89 61.876C119.106 57.0542 116.172 52.1426 111.35 50.9273L104.265 49.1415C107.279 33.3319 97.479 17.6704 81.6757 13.687C65.8724 9.70372 49.8197 18.849 44.9799 34.1983L37.895 32.4125C33.0732 31.1972 28.1615 34.1312 26.9462 38.953L16.3271 81.083L12.9108 79.8778L7.61733 100.879L11.0507 102.09C9.94829 106.855 12.8546 111.663 17.6169 112.863L91.0719 131.378C91.81 131.564 92.5679 131.656 93.3255 131.654L94.4758 131.525L103.272 134.633L108.566 113.631L105.149 112.425L108.022 101.029L111.813 100.746ZM80.794 17.1849C94.67 20.6824 103.302 34.3811 100.767 48.2598L97.2693 47.3782C99.3244 35.432 91.8576 23.6936 79.9124 20.6827C67.9672 17.6719 55.8285 24.4686 51.9756 35.9616L48.4777 35.08C52.8243 21.6579 66.918 13.6874 80.794 17.1849ZM30.444 39.8347C31.1732 36.942 34.1206 35.1813 37.0133 35.9104L58.0004 41.2003L58.8821 37.7024L55.4734 36.8433C56.8419 32.9417 59.3412 29.6972 62.5075 27.3927L64.3087 30.408L67.405 28.5584L65.6038 25.5431C69.1342 23.8456 73.1753 23.1846 77.2593 23.829L76.4001 27.2376L79.898 28.1193L80.7572 24.7106C84.6587 26.0791 87.9032 28.5783 90.2073 31.7464L87.192 33.5477L89.0416 36.644L92.0569 34.8427C93.7548 38.3714 94.4154 42.4142 93.771 46.4983L90.3624 45.6391L89.4807 49.1369L110.468 54.4269C113.361 55.156 115.121 58.1034 114.392 60.9961L109.548 80.2134L105.743 80.5525L106.486 77.602L102.989 76.7204L101.938 80.8881L33.1232 87.0091L26.576 84.6986L36.9989 43.3469L50.1159 46.6531C52.5277 47.261 53.9936 49.7175 53.3861 52.1275C52.2924 56.4666 54.9335 60.8877 59.2726 61.9814L78.5108 66.8305C82.8499 67.9242 87.271 65.2832 88.3647 60.9441C88.9722 58.534 91.4273 57.0659 93.8391 57.6738L106.956 60.98L103.87 73.2225L107.368 74.1042L111.336 58.3638L94.7208 54.1759C90.3817 53.0823 85.9606 55.7233 84.8669 60.0624C84.2594 62.4724 81.8042 63.9406 79.3925 63.3327L60.1543 58.4836C57.7425 57.8757 56.2765 55.4192 56.884 53.0092C57.9777 48.6701 55.3366 44.249 50.9975 43.1553L34.3827 38.9674L23.1597 83.4934L19.7434 82.2882L30.444 39.8347ZM18.4986 109.365C15.7755 108.679 14.0851 106.028 14.4993 103.307L64.5916 120.983L18.4986 109.365ZM100.741 129.915L11.9193 98.5705L15.4423 84.5931L23.9829 87.607L22.466 93.625L25.9639 94.5067L27.3988 88.8139L32.523 90.6226L31.6515 94.0802L35.1493 94.9619L35.9393 91.8278L41.0635 93.6365L39.5145 99.7822L43.0123 100.664L44.4798 94.8417L49.6041 96.6504L48.6999 100.237L52.1978 101.119L53.0204 97.8556L58.1446 99.6643L56.5629 105.939L60.0608 106.821L61.5609 100.869L66.6852 102.678L65.7484 106.395L69.2463 107.276L70.1015 103.883L75.2257 105.692L73.6114 112.097L77.1092 112.978L78.642 106.897L83.7662 108.706L82.7969 112.552L86.2947 113.433L87.1825 109.911L92.3068 111.72L90.6598 118.254L94.1577 119.135L95.7231 112.925L104.264 115.939L100.741 129.915ZM79.0183 103.205L96.6464 101.882L94.9008 108.808L79.0183 103.205ZM98.3166 110.015L100.438 101.599L104.23 101.314L101.733 111.22L98.3166 110.015ZM70.5635 100.22L41.3205 89.9012L61.0479 88.1458L60.0895 91.948L63.5874 92.8297L64.853 87.8085L70.5613 87.2998L70.1567 88.9053L73.6545 89.787L74.3665 86.9625L80.0748 86.4538L78.9013 91.1095L82.3992 91.9911L83.8804 86.1147L89.5887 85.6061L88.9684 88.0668L92.4663 88.9485L93.3479 85.4506L92.8268 85.3193L99.1017 84.7618L97.7131 90.271L101.211 91.1526L102.907 84.4227L112.421 83.5768L108.951 97.3426L70.5635 100.22Z" fill="#E2E2E2"/>
</g>
<defs>
<clipPath id="clip0">
<rect width="112" height="112" fill="white" transform="translate(27.374) rotate(14.147)"/>
</clipPath>
</defs>
</svg>
