<svg width="133" height="133" viewBox="0 0 133 133" fill="none" xmlns="http://www.w3.org/2000/svg">
<g clip-path="url(#clip0)">
<path d="M58.4196 69.3979C57.7137 69.5459 56.9939 69.2149 56.6465 68.5823L48.4156 53.5939L33.817 56.6548C32.9305 56.8407 32.0615 56.2729 31.8756 55.3864C31.6899 54.5008 32.2577 53.6317 33.1442 53.4459L48.9312 50.1358C49.6379 49.9877 50.3577 50.3187 50.7051 50.9513L56.9281 62.2843L58.6037 43.4762C58.6669 42.7575 59.194 42.165 59.8998 42.017C60.6057 41.869 61.3255 42.2 61.6729 42.8326L65.6063 49.9957L79.7165 47.0372C80.6022 46.8515 81.4712 47.4193 81.6571 48.3058C81.8427 49.1914 81.275 50.0604 80.3893 50.2461L65.0907 53.4538C64.3849 53.6017 63.6642 53.2709 63.3178 52.639L61.3913 49.1307L59.7157 67.9388C59.6525 68.6574 59.1262 69.2497 58.4196 69.3979Z" fill="#E2E2E2"/>
<path d="M111.408 26.4625C110.81 25.7811 109.775 25.7136 109.094 26.3112C108.414 26.9077 108.346 27.9435 108.944 28.6241C111.6 31.652 113.445 35.3363 114.279 39.2789C116.503 49.7896 112.914 62.7539 103.611 77.811C96.0371 90.0697 86.7701 100.162 83.1374 103.931C82.5302 104.562 81.6145 104.754 80.8041 104.421C76.5127 102.654 66.0161 98.0501 55.3577 91.2424L70.3268 88.1038L71.6899 94.6053C72.1227 96.6693 74.1541 97.9965 76.2181 97.5638L79.7131 96.831C81.7779 96.3981 83.1051 94.3667 82.6723 92.3026L82.6439 92.1672C82.824 92.1556 83.0058 92.1358 83.1873 92.0978L86.6822 91.365C88.7462 90.9322 90.0734 88.9008 89.6407 86.8368L85.8016 68.5267C85.3689 66.4627 83.3374 65.1355 81.2734 65.5682L77.7785 66.301C77.597 66.339 77.4226 66.394 77.2532 66.4565L77.2246 66.3202C76.7919 64.2562 74.7605 62.929 72.6956 63.3619L69.2007 64.0947C67.1367 64.5275 65.8095 66.5589 66.2422 68.6229L67.5722 74.9663L62.5143 76.0268C61.6278 76.2126 61.06 77.0817 61.2457 77.9673C61.4316 78.8538 62.3006 79.4216 63.1871 79.2357L68.2451 78.1752L69.6542 84.8958L33.9095 92.3903L32.5004 85.6697L55.9304 80.7572C56.8169 80.5713 57.3847 79.7023 57.1988 78.8158C57.0131 77.9302 56.1441 77.3624 55.2576 77.5483L41.1232 80.5118C32.8817 73.014 27.9003 65.3496 26.316 57.7228C23.6615 44.9458 31.8901 32.3865 44.6622 29.7086L44.6949 29.7018C51.7536 28.2314 59.0032 30.0203 64.5847 34.6088C65.4119 35.2893 66.4877 35.5526 67.5365 35.3327C68.5852 35.1129 69.4645 34.4387 69.9488 33.4842C73.2171 27.0401 79.1378 22.4906 86.1925 21.001L86.2251 20.9942C92.1554 19.7508 98.2806 20.8238 103.479 24.0172C104.25 24.4912 105.26 24.2497 105.734 23.479C106.208 22.7073 105.966 21.698 105.195 21.2242C99.2796 17.5892 92.3063 16.3692 85.5523 17.7853C85.5406 17.7877 85.5272 17.7905 85.5147 17.7932C77.4842 19.4882 70.7446 24.6669 67.0249 32.0018C66.9574 32.1339 66.781 32.1708 66.667 32.0769C60.3144 26.8547 52.0623 24.8193 44.0271 26.4918C44.0137 26.4946 44.0028 26.4969 43.9894 26.4997C29.4519 29.5478 20.0844 43.8458 23.1059 58.3898C24.7183 66.1512 29.4573 73.8586 37.2042 81.3335L31.8276 82.4608L30.4974 76.1166C30.0646 74.0526 28.0332 72.7254 25.9692 73.1581L22.4734 73.8911C20.4094 74.3238 19.0822 76.3552 19.515 78.4192L19.5436 78.5556C19.3635 78.5671 19.1817 78.5869 19.0002 78.625L15.5045 79.3579C13.4404 79.7907 12.1132 81.8221 12.546 83.8861L16.3849 102.195C16.8176 104.259 18.849 105.587 20.9131 105.154L24.4088 104.421C24.5903 104.383 24.7648 104.328 24.9343 104.266L24.9629 104.403C25.3956 106.467 27.427 107.794 29.491 107.361L32.9868 106.628C35.0508 106.195 36.378 104.164 35.9453 102.1L34.5821 95.5984L50.8308 92.1916C62.6195 100.139 74.8084 105.498 79.5557 107.453C80.5868 107.877 81.6857 107.967 82.7193 107.751C83.7539 107.534 84.724 107.01 85.4977 106.207C89.2042 102.361 98.6594 92.0623 106.399 79.5339C116.16 63.7355 119.891 49.9629 117.486 38.6002C116.536 34.1085 114.434 29.9115 111.408 26.4625ZM78.4513 69.5099L81.9471 68.777C82.2415 68.7152 82.5318 68.9049 82.5935 69.1993L86.4324 87.5086C86.4943 87.8038 86.3046 88.0942 86.0102 88.1559L82.5145 88.8889C82.2201 88.9506 81.9297 88.7609 81.8678 88.4657L78.029 70.1564C77.9672 69.862 78.1569 69.5716 78.4513 69.5099ZM69.451 67.9492C69.3893 67.6548 69.5781 67.3647 69.8733 67.3028L73.3683 66.57C73.6635 66.5081 73.9538 66.6978 74.0155 66.9922L79.4634 92.9755C79.5252 93.2698 79.3355 93.5602 79.0402 93.6221L75.5453 94.3549C75.2501 94.4168 74.9606 94.2269 74.8989 93.9325L69.451 67.9492ZM32.7364 102.773C32.7983 103.068 32.6086 103.358 32.3142 103.42L28.8184 104.153C28.524 104.215 28.2337 104.025 28.1718 103.73L25.5119 91.0437C25.3262 90.1581 24.4572 89.5903 23.5707 89.7762C22.6851 89.9619 22.1173 90.8309 22.303 91.7166L24.1584 100.566C24.2203 100.861 24.0306 101.151 23.7354 101.213L20.2404 101.946C19.946 102.008 19.6557 101.818 19.5938 101.523L15.7549 83.2133C15.6932 82.9189 15.8829 82.6286 16.1773 82.5668L19.673 81.8339C19.9674 81.7722 20.2578 81.9618 20.3195 82.2562L20.7328 84.2274C20.9186 85.1139 21.7875 85.6808 22.674 85.495C23.5596 85.3093 24.1276 84.4411 23.9417 83.5546L22.7239 77.7464C22.6622 77.4521 22.8519 77.1617 23.1471 77.0998L26.642 76.367C26.9364 76.3053 27.2268 76.495 27.2885 76.7894L32.7364 102.773Z" fill="#E2E2E2"/>
</g>
<defs>
<clipPath id="clip0">
<rect width="112" height="112" fill="white" transform="translate(0 22.9832) rotate(-11.8416)"/>
</clipPath>
</defs>
</svg>
