<svg width="50" height="50" viewBox="0 0 50 50" fill="none" xmlns="http://www.w3.org/2000/svg">
<g clip-path="url(#clip0)">
<path d="M29.5808 25.0409L49.0498 5.57133C50.3168 4.30491 50.3168 2.25729 49.0498 0.990874C47.7834 -0.275543 45.7357 -0.275543 44.4693 0.990874L24.9997 20.4605L5.53071 0.990874C4.2637 -0.275543 2.21667 -0.275543 0.950258 0.990874C-0.316753 2.25729 -0.316753 4.30491 0.950258 5.57133L20.4193 25.0409L0.950258 44.5105C-0.316753 45.777 -0.316753 47.8246 0.950258 49.091C1.58139 49.7227 2.41123 50.0401 3.24049 50.0401C4.06974 50.0401 4.89899 49.7227 5.53071 49.091L24.9997 29.6214L44.4693 49.091C45.1011 49.7227 45.9303 50.0401 46.7596 50.0401C47.5888 50.0401 48.4181 49.7227 49.0498 49.091C50.3168 47.8246 50.3168 45.777 49.0498 44.5105L29.5808 25.0409Z" fill="black"/>
</g>
<defs>
<clipPath id="clip0">
<rect width="50" height="50" fill="white"/>
</clipPath>
</defs>
</svg>
