<svg width="90" height="90" viewBox="0 0 90 90" fill="none" xmlns="http://www.w3.org/2000/svg">
<path d="M75.9827 0H14.0173C6.28822 0 0 6.28805 0 14.0173V75.9827C0 83.712 6.28822 90 14.0173 90H75.9825C83.7118 90 90 83.712 90 75.9827V14.0173C90 6.28805 83.7118 0 75.9827 0ZM87.3633 75.9827C87.3633 82.2581 82.2579 87.3633 75.9827 87.3633H14.0173C7.74211 87.3633 2.63672 82.2581 2.63672 75.9827V14.0173C2.63672 7.74193 7.74211 2.63672 14.0173 2.63672H75.9825C82.2579 2.63672 87.3633 7.74193 87.3633 14.0173V75.9827Z" fill="black"/>
<path d="M75.9827 6.25952H14.0173C9.73969 6.25952 6.2594 9.73964 6.2594 14.0175V18.0123C6.2594 18.7403 6.84967 19.3306 7.57776 19.3306C8.30584 19.3306 8.89612 18.7403 8.89612 18.0123V14.0175C8.89612 11.1937 11.1934 8.89624 14.0173 8.89624H75.9825C78.8063 8.89624 81.1037 11.1935 81.1037 14.0175V75.9826C81.1037 78.8065 78.8064 81.1038 75.9825 81.1038H14.0173C11.1936 81.1038 8.89612 78.8065 8.89612 75.9826V24.1755C8.89612 23.4474 8.30584 22.8571 7.57776 22.8571C6.84967 22.8571 6.2594 23.4474 6.2594 24.1755V75.9826C6.2594 80.2604 9.73952 83.7406 14.0173 83.7406H75.9825C80.2603 83.7406 83.7404 80.2604 83.7404 75.9826V14.0175C83.7404 9.73964 80.2605 6.25952 75.9827 6.25952Z" fill="black"/>
<path d="M66.2035 43.271C62.5184 40.6705 56.3183 39.6793 51.3528 40.8122C50.8409 40.028 50.1883 39.3446 49.4301 38.7976C50.4185 36.7575 52.1401 35.2543 55.1184 33.778C56.6851 33.001 58.6353 32.034 58.6353 29.4704C58.6353 22.4689 51.588 18.135 45.0588 18.135C37.5728 18.135 31.4825 23.22 31.4825 29.4704C31.4825 32.5747 33.0034 36.7137 35.3571 40.0147C36.1131 41.0746 36.9164 42.0077 37.7521 42.8024C37.5884 43.358 37.4853 43.9393 37.4541 44.5396C35.3696 44.3878 33.4047 43.4486 30.9734 41.4851L30.9407 41.4587C29.5951 40.3713 27.9203 39.0176 25.5905 40.0894C19.2293 43.0144 18.236 51.2278 20.9638 57.1599C23.8473 63.4312 30.829 67.5665 36.9342 64.7587C41.2391 62.7792 45.4819 57.3342 46.7595 52.299C47.1406 52.2085 47.5104 52.0898 47.8669 51.9439C49.1128 53.803 49.6906 56.0178 49.0559 60.0989C48.7873 61.827 48.453 63.9777 50.5477 65.4562C56.1082 69.3802 63.7324 66.4323 67.637 60.8993C69.5912 58.1302 70.6304 54.7176 70.4884 51.5368C70.3326 48.0465 68.8109 45.1109 66.2035 43.271ZM37.5039 38.4836C35.4794 35.6444 34.1194 32.0223 34.1194 29.4703C34.1194 24.6737 39.0269 20.7716 45.059 20.7716C51.8162 20.7716 55.9987 25.2868 55.9987 29.4703C55.9987 30.2891 55.5862 30.6028 53.9473 31.4155C50.4303 33.159 48.2979 35.0712 47.0541 37.6504C46.404 37.468 45.7197 37.3683 45.012 37.3683C42.5708 37.3683 40.3969 38.5313 39.0121 40.3313C38.4946 39.7814 37.9899 39.1651 37.5039 38.4836ZM35.8327 62.363C31.0958 64.5418 25.6216 60.978 23.3595 56.0581C20.5364 49.9187 22.8914 44.2324 26.6923 42.4846C27.4367 42.1425 27.8873 42.3809 29.2837 43.5092L29.3167 43.5358C32.3637 45.9967 34.9614 47.1296 37.7887 47.1966C38.6526 49.9516 41.0529 52.0318 43.9809 52.4326C42.5901 56.7756 38.8129 60.9926 35.8327 62.363ZM45.012 49.8681C42.2927 49.8681 40.0805 47.6559 40.0805 44.9366C40.0805 42.2172 42.2927 40.005 45.012 40.005C47.7312 40.005 49.9436 42.2172 49.9436 44.9366C49.9436 47.6826 47.6987 49.8681 45.012 49.8681ZM65.483 59.3787C62.3762 63.7812 56.3508 66.324 52.0684 63.3017C51.3992 62.8295 51.3808 62.3117 51.6618 60.5037C52.324 56.2449 51.8715 53.2524 50.0946 50.5396C52.1066 48.7129 52.9941 45.9643 52.3977 43.2891C56.5257 42.5029 61.7668 43.3674 64.6834 45.4254C66.6096 46.7847 67.7358 48.9969 67.8546 51.6542C67.971 54.2625 67.1067 57.0779 65.483 59.3787Z" fill="black"/>
<path d="M68.1445 74.4434C68.1445 77.3026 70.4706 79.6289 73.3301 79.6289C76.1895 79.6289 78.5156 77.3026 78.5156 74.4434C78.5156 71.5841 76.1895 69.2578 73.3301 69.2578C70.4706 69.2578 68.1445 71.5841 68.1445 74.4434ZM75.8789 74.4434C75.8789 75.8487 74.7354 76.9922 73.3301 76.9922C71.9247 76.9922 70.7812 75.8487 70.7812 74.4434C70.7812 73.038 71.9247 71.8945 73.3301 71.8945C74.7354 71.8945 75.8789 73.038 75.8789 74.4434Z" fill="black"/>
<path d="M68.4419 24.832C67.8746 25.2887 67.7851 26.1185 68.2416 26.6856C72.5434 32.0292 74.8171 38.4874 74.8171 45.362C74.8171 61.7967 61.4466 75.1673 45.0118 75.1673C38.1373 75.1673 31.6791 72.8934 26.3356 68.5917C25.7687 68.1352 24.9386 68.2248 24.482 68.7919C24.0255 69.3591 24.1151 70.189 24.6822 70.6455C30.4163 75.2617 37.6362 77.804 45.0118 77.804C62.9003 77.804 77.4538 63.2506 77.4538 45.362C77.4538 37.9862 74.9115 30.7664 70.2953 25.0322C69.839 24.465 69.0091 24.3755 68.4419 24.832Z" fill="black"/>
<path d="M65.7948 20.4497C59.9801 15.5941 52.5992 12.9199 45.012 12.9199C27.1234 12.9199 12.5699 27.4734 12.5699 45.3621C12.5699 52.9495 15.2441 60.3302 20.0997 66.1447C20.3604 66.4569 20.735 66.6179 21.1124 66.6179C21.4103 66.6179 21.71 66.5174 21.9568 66.3115C22.5156 65.8448 22.5904 65.0134 22.1237 64.4546C17.6632 59.1133 15.2067 52.3329 15.2067 45.3621C15.2067 28.9273 28.5773 15.5566 45.012 15.5566C51.9827 15.5566 58.7633 18.0132 64.1046 22.4736C64.6636 22.9405 65.4949 22.8654 65.9616 22.3068C66.4283 21.7478 66.3534 20.9166 65.7948 20.4497Z" fill="black"/>
</svg>
