<svg width="90" height="90" viewBox="0 0 90 90" fill="none" xmlns="http://www.w3.org/2000/svg">
<g clip-path="url(#clip0)">
<g clip-path="url(#clip1)">
<path d="M81.6702 27.9062C81.0099 25.4415 79.4291 23.3813 77.2191 22.1055L66.0371 15.6495C65.1966 15.1644 64.1215 15.4521 63.636 16.2928C63.1506 17.1336 63.4386 18.2084 64.2794 18.6939L75.4614 25.1499C76.8581 25.9563 77.857 27.2581 78.2745 28.8158C78.6918 30.3737 78.4777 32.0007 77.6712 33.3974L68.7973 48.7676V36.2351C68.7973 33.1546 66.2911 30.6485 63.2107 30.6485C62.4793 30.6485 61.7804 30.7898 61.1395 31.0464V26.2734C61.1395 23.193 58.6333 20.6868 55.5529 20.6868C54.7894 20.6868 54.0613 20.8406 53.3977 21.1192C52.9379 18.4986 50.6453 16.501 47.895 16.501C45.1446 16.501 42.8522 18.4986 42.3924 21.1192C41.7288 20.8408 41.0006 20.6868 40.2372 20.6868C37.1568 20.6868 34.6506 23.193 34.6506 26.2734L34.6503 47.5447L32.6993 44.4992C31.1654 42.1043 28.2036 41.0412 25.497 41.9148C22.2626 42.9584 20.4607 46.3352 21.3948 49.6028L21.5411 50.1142C22.3087 52.7996 23.3554 55.3888 24.6501 57.8415L12.5397 50.8496C9.65647 49.1848 8.6651 45.485 10.3297 42.6018L31.151 6.53898C31.9574 5.14228 33.2594 4.14318 34.8171 3.72572C36.3748 3.30808 38.0019 3.52253 39.3986 4.32897L50.5813 10.7851C51.4222 11.2708 52.4971 10.9827 52.9824 10.1418C53.4679 9.30109 53.1798 8.22623 52.3391 7.74074L41.1563 1.28457C38.9463 0.00880914 36.3718 -0.330434 33.9071 0.330123C31.4424 0.990505 29.3821 2.57141 28.1064 4.78124L26.9957 6.70491C22.7008 5.46447 18.2601 4.7888 13.7734 4.69845C13.7613 4.69828 13.7494 4.6981 13.7374 4.6981C12.7831 4.6981 12.0001 5.46201 11.9807 6.42051C11.9612 7.39095 12.7322 8.19371 13.7028 8.21322C17.5912 8.29144 21.4423 8.84179 25.1812 9.84792L13.5397 30.0114C11.0134 29.1429 8.37754 28.6775 5.68416 28.6295C4.71142 28.61 3.91271 29.385 3.89531 30.3554C3.87791 31.3262 4.65078 32.1269 5.62141 32.1443C7.71382 32.1817 9.76545 32.5108 11.7436 33.1223L7.28563 40.8439C4.65184 45.4057 6.22044 51.26 10.7823 53.8938L28.9617 64.3896C31.0595 66.9914 33.4784 69.3385 36.1702 71.3569V88.2414C36.1702 89.212 36.9571 89.9991 37.9279 89.9991C38.8987 89.9991 39.6856 89.212 39.6856 88.2414V70.4659C39.6856 69.8985 39.4116 69.3658 38.95 69.0358C32.188 64.2028 27.2059 57.1397 24.9214 49.1479L24.7751 48.6366C24.3649 47.2016 25.1562 45.7186 26.5764 45.2605C27.7647 44.8773 29.0657 45.3438 29.7393 46.3953L34.9282 54.4955C35.3491 55.1525 36.1531 55.4535 36.9021 55.2343C37.6512 55.0151 38.1659 54.328 38.1659 53.5474V46.2672C38.1661 46.2556 38.1663 46.244 38.1663 46.2324V26.2736C38.1663 25.1316 39.0954 24.2025 40.2374 24.2025C41.3794 24.2025 42.3085 25.1316 42.3085 26.2736V42.7811C42.3085 43.7517 43.0955 44.5388 44.0663 44.5388C45.0371 44.5388 45.824 43.7517 45.824 42.7811V22.0876C45.824 20.9456 46.7532 20.0164 47.8952 20.0164C49.0373 20.0164 49.9663 20.9456 49.9663 22.0876V42.7811C49.9663 43.7517 50.7532 44.5388 51.724 44.5388C52.6948 44.5388 53.4818 43.7517 53.4818 42.7811V26.2736C53.4818 25.1316 54.4109 24.2025 55.5529 24.2025C56.6949 24.2025 57.6241 25.1316 57.6241 26.2736V42.7811C57.6241 43.7517 58.411 44.5388 59.3818 44.5388C60.3526 44.5388 61.1395 43.7517 61.1395 42.7811V36.2354C61.1395 35.0934 62.0687 34.1643 63.2107 34.1643C64.3527 34.1643 65.2818 35.0934 65.2818 36.2354V50.6436C65.2818 57.5478 62.4779 64.3035 57.5889 69.1784C57.2583 69.5081 57.0723 69.956 57.0723 70.423V88.2418C57.0723 89.2124 57.8592 89.9995 58.83 89.9995C59.8008 89.9995 60.5878 89.2124 60.5878 88.2418V71.14C64.4082 67.141 66.9863 62.2571 68.1279 56.9579L80.7156 35.1555C81.9919 32.9455 82.3308 30.3709 81.6702 27.9062Z" fill="white"/>
<path d="M-6.24072 11.9741C-6.01644 11.9741 -5.78828 11.9309 -5.56821 11.8395C-2.0327 10.3739 1.68421 9.33631 5.47934 8.75538C6.43906 8.60861 7.09786 7.71164 6.95092 6.75209C6.80414 5.79236 5.90752 5.13462 4.94762 5.28051C0.873014 5.90398 -3.11793 7.01821 -6.91446 8.59226C-7.81126 8.96402 -8.23681 9.9923 -7.86505 10.8891C-7.58469 11.5658 -6.93046 11.9741 -6.24072 11.9741Z" fill="white"/>
<path d="M-6.2401 23.4358C-6.01722 23.4358 -5.79064 23.3931 -5.57181 23.3029C-0.0859079 21.0453 5.93839 20.2362 11.8498 20.963C12.8136 21.083 13.6905 20.3967 13.809 19.4331C13.9275 18.4696 13.2425 17.5924 12.2789 17.4739C5.76911 16.6729 -0.866519 17.5649 -6.90979 20.0521C-7.80747 20.4216 -8.23583 21.4487 -7.86636 22.3465C-7.58688 23.0253 -6.93142 23.4358 -6.2401 23.4358Z" fill="white"/>
<path d="M58.3096 14.9758C58.7719 14.9758 59.2237 14.7877 59.5524 14.4607C59.8794 14.1338 60.0674 13.6802 60.0674 13.2179C60.0674 12.7539 59.8794 12.3004 59.5524 11.9734C59.2237 11.6466 58.7718 11.4584 58.3096 11.4584C57.8473 11.4584 57.3938 11.6465 57.0669 11.9734C56.7382 12.3021 56.5518 12.7539 56.5518 13.2179C56.5518 13.6802 56.7382 14.132 57.0669 14.4607C57.3938 14.7877 57.8454 14.9758 58.3096 14.9758Z" fill="white"/>
</g>
</g>
<defs>
<clipPath id="clip0">
<rect width="90" height="90" fill="white"/>
</clipPath>
<clipPath id="clip1">
<rect width="90" height="90" fill="white" transform="translate(-8)"/>
</clipPath>
</defs>
</svg>
