<svg width="24" height="24" viewBox="0 0 24 24" fill="none" xmlns="http://www.w3.org/2000/svg">
<path d="M23.3707 17.6136L20.0143 14.2643C18.8157 13.0681 16.7779 13.5467 16.2984 15.1016C15.9388 16.1782 14.7401 16.7763 13.6613 16.537C11.2639 15.9389 8.02748 12.8289 7.42814 10.317C7.06854 9.24036 7.78775 8.04419 8.86656 7.68538C10.4249 7.20692 10.9043 5.17343 9.70564 3.97726L6.34932 0.627989C5.39038 -0.20933 3.95195 -0.20933 3.11287 0.627989L0.835372 2.90071C-1.44213 5.29305 1.07511 11.6327 6.70893 17.2547C12.3428 22.8767 18.6958 25.5083 21.0932 23.116L23.3707 20.8432C24.2098 19.8863 24.2098 18.4509 23.3707 17.6136Z" fill="white"/>
</svg>
