<svg width="32" height="32" viewBox="0 0 32 32" fill="none" xmlns="http://www.w3.org/2000/svg">
<path d="M31.4521 5.72363C31.1609 2.99463 29.0056 0.838867 26.2764 0.547852C19.4321 -0.182617 12.5679 -0.182617 5.72388 0.547852C2.99463 0.839111 0.839111 2.99463 0.547852 5.72363C-0.182617 12.5676 -0.182617 19.4321 0.547852 26.2761C0.839111 29.0054 2.99463 31.1609 5.72363 31.4521C12.5676 32.1826 19.4321 32.1826 26.2764 31.4521C29.0056 31.1609 31.1609 29.0054 31.4521 26.2761C32.1826 19.4321 32.1826 12.5679 31.4521 5.72363Z" fill="url(#paint0_radial)"/>
<path d="M29.7117 6.88123C29.4534 4.45959 27.5408 2.54675 25.1189 2.28821C19.0457 1.64026 12.9543 1.64026 6.8811 2.28821C4.45947 2.54675 2.54663 4.45959 2.28809 6.88123C1.64014 12.9545 1.64014 19.0458 2.28809 25.1188C2.54663 27.5406 4.45947 29.4535 6.8811 29.7118C12.9543 30.36 19.0457 30.36 25.1187 29.7118C27.5405 29.4535 29.4534 27.5406 29.7117 25.1188C30.3599 19.0458 30.3599 12.9545 29.7117 6.88123Z" fill="url(#paint1_linear)"/>
<path d="M0.479492 25.6128C0.501465 25.834 0.52417 26.0552 0.547852 26.2764C0.839111 29.0054 2.99463 31.1609 5.72388 31.4521C12.5679 32.1826 19.4324 32.1826 26.2764 31.4521C29.0056 31.1609 31.1609 29.0054 31.4521 26.2764C31.4758 26.0552 31.4985 25.834 31.5208 25.6128H0.479492Z" fill="url(#paint2_linear)"/>
<path d="M31.4521 26.2763C31.8447 22.5988 32.0259 18.9155 31.9966 15.2326L24.6821 7.91817C23.7683 6.87496 22.4336 6.22383 20.8652 6.16744C17.6399 6.05123 14.4043 6.05708 11.1785 6.16792C8.49927 6.26021 6.62573 8.06099 6.14526 10.7077C6.06055 11.175 6.00977 11.6484 5.94312 12.1191V19.8784C5.97998 20.1298 6.03418 20.3801 6.05103 20.633C6.15845 22.2429 6.82007 23.6218 7.87939 24.5546L15.3228 31.9978C18.9756 32.0234 22.6287 31.8418 26.2764 31.4523C29.0056 31.1611 31.1609 29.0056 31.4521 26.2763Z" fill="url(#paint3_linear)"/>
<path d="M31.4521 26.2764C31.1611 29.0051 29.0051 31.1611 26.2764 31.4521C22.6292 31.8413 18.9753 32.0232 15.323 31.9976L7.89087 24.5654C8.75244 25.3196 9.87549 25.7788 11.1787 25.8279C14.4038 25.949 17.6401 25.9458 20.8652 25.8296C23.7822 25.7241 25.8931 23.5652 25.9841 20.6482C26.0813 17.551 26.0813 14.4458 25.9841 11.3486C25.9426 10.0029 25.4702 8.81885 24.687 7.92285L31.9968 15.2327C32.0256 18.915 31.8445 22.5989 31.4521 26.2764Z" fill="url(#paint4_linear)"/>
<path d="M19.7759 12.5349C18.8389 11.5146 17.4944 10.8745 16 10.8745C13.1694 10.8745 10.8745 13.1694 10.8745 16C10.8745 17.4944 11.5146 18.8389 12.5349 19.7759L24.3936 31.6345C25.0212 31.5798 25.6489 31.519 26.2761 31.4521C29.0054 31.1609 31.1609 29.0054 31.4521 26.2761C31.519 25.6489 31.5798 25.0212 31.6345 24.3936L19.7759 12.5349Z" fill="url(#paint5_linear)"/>
<path d="M31.938 19.447L22.394 9.90332C22.1714 9.61108 21.8206 9.42139 21.4248 9.42139C20.7515 9.42139 20.2053 9.96729 20.2053 10.6409C20.2053 11.0366 20.395 11.3875 20.6873 11.6101L31.7673 22.6904C31.8425 21.6096 31.8994 20.5283 31.938 19.447Z" fill="url(#paint6_linear)"/>
<path d="M5.94312 12.1191C6.00977 11.6484 6.06055 11.175 6.14526 10.7077C6.62549 8.06099 8.49927 6.26021 11.1785 6.16792C14.4043 6.05708 17.6399 6.05123 20.8652 6.16744C23.7812 6.27242 25.8931 8.4316 25.9841 11.3486C26.0811 14.446 26.0811 17.551 25.9841 20.6484C25.8931 23.5654 23.782 25.7243 20.8655 25.8295C17.6401 25.946 14.4038 25.9489 11.1787 25.8278C8.26221 25.7182 6.24609 23.5542 6.05103 20.6328C6.03418 20.3801 5.97998 20.1296 5.94312 19.8781C5.94312 17.2917 5.94312 14.7053 5.94312 12.1191ZM16.0027 24.1008C17.4788 24.1008 18.9563 24.145 20.4304 24.0905C22.7417 24.0048 24.1633 22.6254 24.2173 20.3164C24.2842 17.4392 24.2842 14.5581 24.2173 11.6806C24.1633 9.37203 22.7407 7.9604 20.4304 7.91133C17.498 7.84932 14.5625 7.84981 11.6301 7.91133C9.3374 7.95943 7.91162 9.34248 7.84937 11.6257C7.77026 14.5393 7.77026 17.458 7.84937 20.3715C7.91162 22.6545 9.3374 24.0056 11.6304 24.0905C13.0859 24.1447 14.5452 24.1008 16.0027 24.1008Z" fill="url(#paint7_linear)"/>
<path d="M5.94312 12.1191C6.00977 11.6484 6.06055 11.175 6.14526 10.7077C6.62549 8.06099 8.49927 6.26021 11.1785 6.16792C14.4043 6.05708 17.6399 6.05123 20.8652 6.16744C23.7812 6.27242 25.8931 8.4316 25.9841 11.3486C26.0811 14.446 26.0811 17.551 25.9841 20.6484C25.8931 23.5654 23.782 25.7243 20.8655 25.8295C17.6401 25.946 14.4038 25.9489 11.1787 25.8278C8.26221 25.7182 6.24609 23.5542 6.05103 20.6328C6.03418 20.3801 5.97998 20.1296 5.94312 19.8781C5.94312 17.2917 5.94312 14.7053 5.94312 12.1191ZM16.0027 24.1008C17.4788 24.1008 18.9563 24.145 20.4304 24.0905C22.7417 24.0048 24.1633 22.6254 24.2173 20.3164C24.2842 17.4392 24.2842 14.5581 24.2173 11.6806C24.1633 9.37203 22.7407 7.9604 20.4304 7.91133C17.498 7.84932 14.5625 7.84981 11.6301 7.91133C9.3374 7.95943 7.91162 9.34248 7.84937 11.6257C7.77026 14.5393 7.77026 17.458 7.84937 20.3715C7.91162 22.6545 9.3374 24.0056 11.6304 24.0905C13.0859 24.1447 14.5452 24.1008 16.0027 24.1008Z" fill="white"/>
<path d="M16 10.875C13.1694 10.875 10.8745 13.1697 10.8745 16.0002C10.8745 18.8311 13.1694 21.1257 16 21.1257C18.8308 21.1257 21.1255 18.8311 21.1255 16.0002C21.1255 13.1697 18.8308 10.875 16 10.875ZM16 19.3611C14.1438 19.3611 12.6392 17.8564 12.6392 16.0002C12.6392 14.144 14.1438 12.6394 16 12.6394C17.8562 12.6394 19.3608 14.144 19.3608 16.0002C19.3608 17.8564 17.8562 19.3611 16 19.3611Z" fill="white"/>
<path d="M22.644 10.6409C22.644 11.3142 22.0981 11.8601 21.4248 11.8601C20.7515 11.8601 20.2053 11.3142 20.2053 10.6409C20.2053 9.96729 20.7515 9.42139 21.4248 9.42139C22.0981 9.42139 22.644 9.96729 22.644 10.6409Z" fill="white"/>
<defs>
<radialGradient id="paint0_radial" cx="0" cy="0" r="1" gradientUnits="userSpaceOnUse" gradientTransform="translate(6.55982 27.9655) scale(35.2904)">
<stop stop-color="#FAE100"/>
<stop offset="0.0544" stop-color="#FADC04"/>
<stop offset="0.1167" stop-color="#FBCE0E"/>
<stop offset="0.1829" stop-color="#FCB720"/>
<stop offset="0.2514" stop-color="#FE9838"/>
<stop offset="0.3054" stop-color="#FF7950"/>
<stop offset="0.4922" stop-color="#FF1C74"/>
<stop offset="1" stop-color="#6C1CD1"/>
</radialGradient>
<linearGradient id="paint1_linear" x1="12.2733" y1="13.9039" x2="-41.9385" y2="-16.5903" gradientUnits="userSpaceOnUse">
<stop stop-color="#A1B5D8" stop-opacity="0"/>
<stop offset="0.3094" stop-color="#90A2BD" stop-opacity="0.309804"/>
<stop offset="0.7554" stop-color="#7C8B9C" stop-opacity="0.756863"/>
<stop offset="1" stop-color="#748290"/>
</linearGradient>
<linearGradient id="paint2_linear" x1="16" y1="28.2479" x2="16" y2="33.2359" gradientUnits="userSpaceOnUse">
<stop stop-color="#FAE100" stop-opacity="0"/>
<stop offset="0.3068" stop-color="#FCA800" stop-opacity="0.305882"/>
<stop offset="0.6275" stop-color="#FE7300" stop-opacity="0.627451"/>
<stop offset="0.8685" stop-color="#FF5200" stop-opacity="0.866667"/>
<stop offset="1" stop-color="#FF4500"/>
</linearGradient>
<linearGradient id="paint3_linear" x1="14.1795" y1="14.1344" x2="6.26004" y2="6.21496" gradientUnits="userSpaceOnUse">
<stop stop-color="#833AB4" stop-opacity="0"/>
<stop offset="1" stop-color="#833AB4"/>
</linearGradient>
<linearGradient id="paint4_linear" x1="21.9312" y1="29.268" x2="17.9785" y2="10.6336" gradientUnits="userSpaceOnUse">
<stop stop-color="#833AB4" stop-opacity="0"/>
<stop offset="1" stop-color="#833AB4"/>
</linearGradient>
<linearGradient id="paint5_linear" x1="23.4353" y1="23.4353" x2="7.55882" y2="7.5588" gradientUnits="userSpaceOnUse">
<stop stop-color="#833AB4" stop-opacity="0"/>
<stop offset="1" stop-color="#833AB4"/>
</linearGradient>
<linearGradient id="paint6_linear" x1="24.6129" y1="13.8289" x2="19.3629" y2="8.5789" gradientUnits="userSpaceOnUse">
<stop stop-color="#833AB4" stop-opacity="0"/>
<stop offset="1" stop-color="#833AB4"/>
</linearGradient>
<linearGradient id="paint7_linear" x1="22.3536" y1="9.6908" x2="9.40891" y2="22.6355" gradientUnits="userSpaceOnUse">
<stop stop-color="#833AB4"/>
<stop offset="0.0922" stop-color="#9C3495"/>
<stop offset="0.2927" stop-color="#DC2546"/>
<stop offset="0.392" stop-color="#FD1D1D"/>
<stop offset="0.5589" stop-color="#FC6831"/>
<stop offset="0.6887" stop-color="#FC9B40"/>
<stop offset="0.7521" stop-color="#FCAF45"/>
<stop offset="0.7806" stop-color="#FDB750"/>
<stop offset="0.8656" stop-color="#FECB6A"/>
<stop offset="0.9415" stop-color="#FFD87A"/>
<stop offset="1" stop-color="#FFDC80"/>
</linearGradient>
</defs>
</svg>
