<svg width="296" height="72" viewBox="0 0 296 72" fill="none" xmlns="http://www.w3.org/2000/svg">
<g clip-path="url(#clip0)">
<path d="M71.969 36.0002C71.9751 28.8774 69.8682 21.9129 65.9148 15.988C61.9614 10.0631 56.3393 5.44411 49.7599 2.71551C43.1805 -0.0130762 35.9395 -0.728605 28.9533 0.659476C21.9671 2.04756 15.5497 5.47686 10.5132 10.5134C5.47661 15.55 2.04731 21.9674 0.659232 28.9536C-0.728849 35.9398 -0.0133203 43.1807 2.71527 49.7602C5.44386 56.3396 10.0629 61.9617 15.9878 65.915C21.9127 69.8684 28.8772 71.9754 36 71.9692C45.5339 71.9508 54.6721 68.1553 61.4136 61.4138C68.1551 54.6723 71.9506 45.5341 71.969 36.0002ZM36 67.4189C29.7859 67.4189 23.7114 65.5763 18.5446 62.1239C13.3778 58.6716 9.35083 53.7647 6.97282 48.0236C4.59481 42.2826 3.97261 35.9653 5.18491 29.8707C6.39721 23.7761 9.38955 18.1778 13.7835 13.7838C18.1775 9.3898 23.7758 6.39745 29.8705 5.18515C35.9651 3.97285 42.2824 4.59505 48.0234 6.97306C53.7644 9.35107 58.6713 13.3781 62.1237 18.5449C65.576 23.7117 67.4187 29.7862 67.4187 36.0002C67.4085 44.3298 64.095 52.3154 58.2051 58.2053C52.3151 64.0952 44.3296 67.4087 36 67.4189Z" fill="#231F20"/>
<path d="M73.0293 70.1351C73.1144 66.6527 80.4119 65.8711 80.4119 60.8487C80.4119 58.2099 78.3921 56.461 75.5985 56.461C74.6044 56.4585 73.6284 56.7266 72.775 57.2364C71.9217 57.7463 71.2231 58.4787 70.7541 59.3552L72.3018 60.4154C72.6101 59.8552 73.0562 59.3828 73.5978 59.043C74.1394 58.7031 74.7588 58.5069 75.3973 58.473C75.7487 58.4419 76.1028 58.4842 76.437 58.5971C76.7712 58.7101 77.0783 58.8913 77.3388 59.1292C77.5993 59.3672 77.8075 59.6566 77.9502 59.9793C78.0929 60.3019 78.1669 60.6507 78.1677 61.0035C78.1677 64.5942 70.6613 65.3913 70.6613 70.8238C70.6768 71.2087 70.7233 71.5917 70.8006 71.9691H80.6441V70.1351H73.0293Z" fill="#231F20"/>
<path d="M102.072 25.0035C102.072 21.3896 104.711 20.964 106.189 20.964C106.515 20.9617 106.841 20.985 107.164 21.0336V17.7989C106.688 17.7244 106.207 17.6881 105.725 17.6905C103.241 17.6905 98.3035 18.5031 98.3035 24.9958V25.6536H95.8503V28.6329H98.2803V45.2864H102.049V28.6329H110.445V45.2864H114.175V25.6226H102.072V25.0035Z" fill="#231F20"/>
<path d="M114.23 17.853H110.384V21.6604H114.23V17.853Z" fill="#231F20"/>
<path d="M124.592 37.6713V28.888H129.335V25.7926H124.592V20.2285H120.9V25.8235H118.261V28.919H120.823V38.1279C120.823 44.698 125.83 45.5105 128.36 45.5105C128.804 45.5032 129.246 45.4644 129.684 45.3945V42.0282C129.388 42.0877 129.087 42.1136 128.786 42.1056C127.323 42.1056 124.592 41.5948 124.592 37.6713Z" fill="#231F20"/>
<path d="M137.298 35.8454C137.298 31.8059 140.022 28.6176 143.868 28.6176C147.018 28.6176 147.56 30.7921 147.56 33.5548V45.2865H151.328V32.6958C151.328 27.6812 149.231 25.1584 144.611 25.1584C143.053 25.1319 141.52 25.556 140.196 26.3796C138.873 27.2033 137.816 28.3915 137.151 29.8016H137.066C137.143 29.3127 137.182 28.8185 137.182 28.3235V25.6227H133.53V45.2865H137.298V35.8454Z" fill="#231F20"/>
<path d="M172.153 40.1944C170.565 41.6435 168.506 42.4683 166.357 42.516C165.478 42.5538 164.602 42.4125 163.78 42.1006C162.958 41.7886 162.208 41.3126 161.576 40.7016C160.944 40.0905 160.443 39.3572 160.103 38.5462C159.764 37.7353 159.593 36.8637 159.601 35.9846H173.894C173.979 35.4724 174.033 34.9556 174.057 34.4369C174.057 29.3758 171.101 25.2202 165.544 25.2202C159.988 25.2202 155.677 29.2598 155.677 35.5203C155.677 41.3475 159.949 45.8126 166.132 45.8126C168.921 45.8117 171.619 44.8218 173.747 43.019L172.153 40.1944ZM165.467 28.0758C168.028 28.0758 170.11 29.8556 170.249 33.2451H159.717C160.259 29.9717 162.549 28.0758 165.467 28.0758Z" fill="#231F20"/>
<path d="M181.354 30.7533C181.354 29.0818 182.786 28.3079 184.69 28.3079C186.5 28.3 188.258 28.9178 189.666 30.0569L191.213 27.3329C189.425 25.853 187.157 25.0794 184.837 25.1583C180.967 25.1583 177.764 27.1085 177.764 30.8307C177.764 37.2847 187.862 36.2478 187.862 40.0397C187.862 41.6725 186.508 42.6089 184.527 42.6089C182.375 42.586 180.31 41.7577 178.739 40.2873L176.959 42.8565C178.982 44.7545 181.668 45.785 184.442 45.7275C188.644 45.7275 191.523 43.2822 191.523 39.9391C191.492 33.4773 181.354 34.5994 181.354 30.7533Z" fill="#231F20"/>
<path d="M198.712 30.7533C198.712 29.0818 200.151 28.3079 202.055 28.3079C203.866 28.3 205.623 28.9178 207.031 30.0569L208.579 27.3329C206.79 25.853 204.522 25.0794 202.202 25.1583C198.333 25.1583 195.129 27.1085 195.129 30.8307C195.129 37.2847 205.236 36.2478 205.236 40.0397C205.236 41.6725 203.874 42.6089 201.893 42.6089C199.741 42.586 197.675 41.7577 196.104 40.2873L194.316 42.8565C196.345 44.7521 199.032 45.7821 201.807 45.7275C206.009 45.7275 208.88 43.2822 208.88 39.9391C208.85 33.4773 198.712 34.5994 198.712 30.7533Z" fill="#231F20"/>
<path d="M232.058 42.4929C231.128 42.5148 230.203 42.3459 229.341 41.9968C228.479 41.6477 227.698 41.1256 227.045 40.4629C226.393 39.8002 225.883 39.0108 225.547 38.1435C225.211 37.2762 225.057 36.3492 225.093 35.4198C225.06 34.5069 225.214 33.5968 225.544 32.7452C225.875 31.8936 226.376 31.1183 227.016 30.4665C227.656 29.8148 228.422 29.3003 229.268 28.9545C230.113 28.6087 231.02 28.4387 231.934 28.4551C233.961 28.4859 235.899 29.2917 237.351 30.707L239.146 28.0682C238.167 27.1267 237.011 26.3882 235.746 25.8955C234.48 25.4027 233.129 25.1654 231.771 25.1971C225.58 25.1971 221.231 29.6546 221.231 35.4895C221.231 41.3244 225.549 45.7818 231.771 45.7818C233.221 45.8006 234.659 45.5327 236.005 44.9935C237.35 44.4543 238.575 43.6544 239.611 42.64L238.101 39.8773C236.501 41.4987 234.335 42.4363 232.058 42.4929Z" fill="#231F20"/>
<path d="M247.442 39.2657V17.8452H243.72V39.8925C243.72 44.8607 246.815 45.4798 248.997 45.4798C249.415 45.4772 249.832 45.4383 250.243 45.3637V42.0206C250.025 42.0503 249.806 42.0632 249.586 42.0593C248.409 42.0593 247.442 41.595 247.442 39.2657Z" fill="#231F20"/>
<path d="M267.756 34.8238C267.756 38.6931 265.434 42.2374 261.34 42.2374C258.245 42.2374 257.657 40.0628 257.657 37.3465V25.6226H253.826V38.2133C253.826 43.4214 256.148 45.7507 260.559 45.7507C262.088 45.7369 263.582 45.2945 264.872 44.4737C266.162 43.6529 267.196 42.4867 267.856 41.1075H267.934C267.833 41.5807 267.781 42.063 267.779 42.5469V45.2631H271.432V25.6226H267.756V34.8238Z" fill="#231F20"/>
<path d="M287.334 25.1659C286.062 25.1306 284.804 25.4327 283.686 26.0417C282.569 26.6507 281.633 27.5447 280.973 28.6328H280.911C281.023 28.0828 281.078 27.5226 281.074 26.9613V17.8452H277.274V45.2863H280.803V43.6922C280.808 43.1973 280.771 42.703 280.695 42.2141H280.772C281.412 43.3012 282.326 44.2005 283.424 44.8214C284.522 45.4423 285.764 45.7628 287.025 45.7506C292.241 45.7506 295.955 41.7111 295.955 35.4583C295.955 29.3525 292.659 25.1659 287.334 25.1659ZM286.483 42.4927C282.753 42.4927 280.919 39.0335 280.919 35.5279C280.919 30.552 283.643 28.4548 286.599 28.4548C289.865 28.4548 292.156 31.2098 292.156 35.4815C292.156 39.9622 289.594 42.4927 286.483 42.4927Z" fill="#231F20"/>
</g>
<defs>
<clipPath id="clip0">
<rect width="295.955" height="72" fill="white"/>
</clipPath>
</defs>
</svg>
