<svg width="246" height="60" viewBox="0 0 246 60" fill="none" xmlns="http://www.w3.org/2000/svg">
<g clip-path="url(#clip0)">
<path d="M59.8216 30.0004C59.8267 24.0648 58.0754 18.261 54.7893 13.3236C51.5032 8.3862 46.8301 4.53702 41.3612 2.2632C35.8924 -0.0106298 29.8736 -0.606904 24.0667 0.549831C18.2597 1.70656 12.9255 4.56432 8.73907 8.76144C4.55266 12.9586 1.7022 18.3064 0.548416 24.1283C-0.605366 29.9501 -0.010614 35.9842 2.25741 41.4671C4.52543 46.9499 8.36478 51.635 13.2896 54.9295C18.2144 58.224 24.0034 59.9797 29.9239 59.9746C37.8485 59.9593 45.4442 56.7964 51.0478 51.1785C56.6514 45.5605 59.8063 37.9454 59.8216 30.0004V30.0004ZM29.9239 56.1827C24.7587 56.1827 19.7095 54.6472 15.4149 51.7702C11.1202 48.8933 7.77293 44.8041 5.79631 40.02C3.81969 35.2358 3.30252 29.9714 4.31019 24.8925C5.31786 19.8137 7.80512 15.1484 11.4574 11.4868C15.1097 7.8251 19.7631 5.33148 24.829 4.32123C29.8949 3.31098 35.1458 3.82948 39.9178 5.81115C44.6898 7.79283 48.7685 11.1487 51.6381 15.4543C54.5077 19.76 56.0393 24.8221 56.0393 30.0004C56.0308 36.9418 53.2766 43.5964 48.3809 48.5047C43.4851 53.413 36.8475 56.1742 29.9239 56.1827V56.1827Z" fill="white"/>
<path d="M60.7024 58.4458C60.7731 55.5438 66.8389 54.8925 66.8389 50.7072C66.8389 48.5082 65.16 47.0507 62.8379 47.0507C62.0117 47.0487 61.2004 47.2721 60.4911 47.697C59.7817 48.1218 59.2011 48.7322 58.8113 49.4626L60.0977 50.3461C60.354 49.8792 60.7247 49.4856 61.1749 49.2024C61.6251 48.9192 62.1399 48.7557 62.6707 48.7274C62.9628 48.7015 63.2571 48.7367 63.5349 48.8309C63.8127 48.925 64.068 49.076 64.2845 49.2743C64.501 49.4726 64.674 49.7138 64.7927 49.9827C64.9113 50.2515 64.9729 50.5422 64.9735 50.8362C64.9735 53.8285 58.7341 54.4927 58.7341 59.0198C58.747 59.3405 58.7857 59.6597 58.8499 59.9742H67.0319V58.4458H60.7024Z" fill="white"/>
<path d="M84.8431 20.8362C84.8431 17.8246 87.0366 17.4699 88.2651 17.4699C88.5364 17.468 88.8074 17.4874 89.0756 17.5279V14.8323C88.6799 14.7702 88.2798 14.74 87.8792 14.742C85.8144 14.742 81.7105 15.4192 81.7105 20.8298V21.3779H79.6715V23.8607H81.6912V37.7386H84.8238V23.8607H91.803V37.7386H94.9034V21.3521H84.8431V20.8362Z" fill="white"/>
<path d="M94.9484 14.8775H91.7515V18.0503H94.9484V14.8775Z" fill="white"/>
<path d="M103.561 31.3929V24.0735H107.504V21.494H103.561V16.8573H100.493V21.5198H98.2997V24.0993H100.429V31.7734C100.429 37.2485 104.591 37.9256 106.694 37.9256C107.062 37.9195 107.43 37.8872 107.794 37.8289V35.0236C107.548 35.0732 107.298 35.0949 107.048 35.0881C105.832 35.0881 103.561 34.6625 103.561 31.3929Z" fill="white"/>
<path d="M114.123 29.871C114.123 26.5047 116.388 23.8478 119.584 23.8478C122.202 23.8478 122.653 25.6599 122.653 27.9622V37.7386H125.785V27.2464C125.785 23.0675 124.042 20.9652 120.202 20.9652C118.906 20.9431 117.632 21.2965 116.532 21.9829C115.432 22.6692 114.553 23.6594 114.001 24.8345H113.93C113.995 24.4271 114.027 24.0152 114.027 23.6028V21.3521H110.991V37.7386H114.123V29.871Z" fill="white"/>
<path d="M143.095 33.4953C141.775 34.7028 140.063 35.3901 138.277 35.4299C137.547 35.4615 136.818 35.3437 136.135 35.0837C135.452 34.8238 134.828 34.4271 134.303 33.9179C133.778 33.4087 133.361 32.7976 133.079 32.1218C132.797 31.446 132.655 30.7197 132.661 29.9871H144.542C144.612 29.5602 144.658 29.1296 144.677 28.6973C144.677 24.4798 142.22 21.0168 137.601 21.0168C132.983 21.0168 129.4 24.3831 129.4 29.6002C129.4 34.4562 132.951 38.1771 138.09 38.1771C140.408 38.1763 142.651 37.3514 144.42 35.8491L143.095 33.4953ZM137.537 23.3964C139.666 23.3964 141.397 24.8796 141.512 27.7042H132.758C133.208 24.9764 135.112 23.3964 137.537 23.3964Z" fill="white"/>
<path d="M150.743 25.6277C150.743 24.2347 151.933 23.5899 153.515 23.5899C155.02 23.5832 156.481 24.0981 157.651 25.0473L158.938 22.7773C157.451 21.544 155.566 20.8994 153.637 20.9652C150.421 20.9652 147.758 22.5903 147.758 25.6922C147.758 31.0705 156.152 30.2064 156.152 33.3663C156.152 34.727 155.027 35.5073 153.38 35.5073C151.591 35.4883 149.875 34.798 148.569 33.5727L147.089 35.7137C148.771 37.2953 151.004 38.154 153.309 38.1062C156.802 38.1062 159.195 36.0684 159.195 33.2825C159.169 27.8977 150.743 28.8328 150.743 25.6277Z" fill="white"/>
<path d="M165.171 25.6277C165.171 24.2347 166.367 23.5899 167.949 23.5899C169.454 23.5832 170.916 24.0981 172.085 25.0473L173.372 22.7773C171.886 21.544 170 20.8994 168.072 20.9652C164.856 20.9652 162.192 22.5903 162.192 25.6922C162.192 31.0705 170.593 30.2064 170.593 33.3663C170.593 34.727 169.461 35.5073 167.814 35.5073C166.026 35.4883 164.309 34.798 163.003 33.5727L161.517 35.7137C163.203 37.2933 165.437 38.1516 167.744 38.1062C171.236 38.1062 173.623 36.0684 173.623 33.2825C173.597 27.8977 165.171 28.8328 165.171 25.6277Z" fill="white"/>
<path d="M192.888 35.4106C192.115 35.4288 191.347 35.2881 190.63 34.9971C189.913 34.7062 189.264 34.2712 188.722 33.7189C188.179 33.1666 187.755 32.5088 187.476 31.786C187.197 31.0633 187.069 30.2908 187.099 29.5163C187.071 28.7555 187.199 27.9972 187.474 27.2875C187.749 26.5778 188.165 25.9317 188.697 25.3886C189.229 24.8455 189.866 24.4167 190.569 24.1285C191.272 23.8404 192.026 23.6988 192.785 23.7124C194.47 23.738 196.081 24.4096 197.288 25.589L198.78 23.3899C197.966 22.6053 197.005 21.99 195.953 21.5794C194.901 21.1687 193.779 20.971 192.65 20.9974C187.504 20.9974 183.889 24.712 183.889 29.5744C183.889 34.4368 187.478 38.1513 192.65 38.1513C193.854 38.167 195.05 37.9437 196.169 37.4944C197.287 37.045 198.305 36.3785 199.166 35.5331L197.912 33.2309C196.582 34.582 194.781 35.3634 192.888 35.4106V35.4106Z" fill="white"/>
<path d="M205.675 32.7214V14.871H202.581V33.2438C202.581 37.3839 205.154 37.8998 206.968 37.8998C207.316 37.8977 207.662 37.8653 208.004 37.8031V35.0172C207.823 35.0419 207.64 35.0527 207.457 35.0494C206.479 35.0494 205.675 34.6625 205.675 32.7214Z" fill="white"/>
<path d="M222.56 29.0198C222.56 32.2442 220.631 35.1978 217.228 35.1978C214.655 35.1978 214.166 33.3856 214.166 31.1221V21.3521H210.982V31.8444C210.982 36.1844 212.912 38.1255 216.578 38.1255C217.849 38.1141 219.091 37.7454 220.164 37.0614C221.236 36.3774 222.095 35.4055 222.644 34.2562H222.708C222.624 34.6506 222.581 35.0525 222.58 35.4557V37.7193H225.616V21.3521H222.56V29.0198Z" fill="white"/>
<path d="M238.834 20.9716C237.777 20.9422 236.731 21.194 235.802 21.7014C234.873 22.2089 234.095 22.9539 233.547 23.8607H233.495C233.588 23.4023 233.634 22.9355 233.631 22.4678V14.871H230.472V37.7386H233.405V36.4102C233.409 35.9978 233.379 35.5858 233.315 35.1784H233.38C233.911 36.0843 234.671 36.8338 235.584 37.3512C236.496 37.8686 237.529 38.1357 238.577 38.1255C242.912 38.1255 246 34.7592 246 29.5486C246 24.4605 243.26 20.9716 238.834 20.9716ZM238.127 35.4106C235.026 35.4106 233.502 32.528 233.502 29.6066C233.502 25.46 235.766 23.7124 238.223 23.7124C240.938 23.7124 242.842 26.0082 242.842 29.5679C242.842 33.3018 240.713 35.4106 238.127 35.4106V35.4106Z" fill="white"/>
</g>
<defs>
<clipPath id="clip0">
<rect width="246" height="60" fill="white"/>
</clipPath>
</defs>
</svg>
