<svg width="66" height="60" viewBox="0 0 66 60" fill="none" xmlns="http://www.w3.org/2000/svg">
<path d="M59 29.501C58.9995 23.6666 57.2689 17.9633 54.0271 13.1124C50.7852 8.2615 46.1778 4.48083 40.7873 2.24846C35.3968 0.0160857 29.4655 -0.56773 23.7432 0.570836C18.0209 1.7094 12.7648 4.51922 8.63941 8.64497C4.51403 12.7707 1.7047 18.0271 0.566651 23.7495C-0.571395 29.4719 0.0129596 35.4032 2.24582 40.7934C4.47869 46.1837 8.25978 50.7908 13.111 54.0322C17.9622 57.2736 23.6656 59.0037 29.5 59.0037C37.3215 58.9944 44.82 55.8831 50.3504 50.3522C55.8808 44.8213 58.9915 37.3225 59 29.501ZM29.5161 55.2512C24.4232 55.2512 19.4447 53.7409 15.2101 50.9115C10.9755 48.082 7.675 44.0604 5.72603 39.3552C3.77706 34.6499 3.26712 29.4724 4.2607 24.4774C5.25427 19.4823 7.70674 14.8941 11.308 11.2929C14.9092 7.69164 19.4974 5.23917 24.4925 4.24559C29.4875 3.25202 34.665 3.76196 39.3703 5.71093C44.0755 7.6599 48.0971 10.9604 50.9266 15.195C53.756 19.4296 55.2663 24.4081 55.2663 29.501C55.2592 36.331 52.5417 42.8789 47.7107 47.707C42.8797 52.535 36.33 55.2483 29.5 55.2512H29.5161Z" fill="white"/>
<path d="M59.6336 57.534C59.7019 54.6174 65.5646 53.9738 65.5646 49.7619C65.5646 47.5491 63.9451 46.084 61.7 46.084C60.9004 46.0822 60.1154 46.3074 59.4294 46.7354C58.7434 47.1634 58.1824 47.778 57.8064 48.5131L59.0736 49.3977C59.5994 48.4748 60.538 47.7682 61.5633 47.7682C62.8778 47.7682 63.79 48.6363 63.79 49.8879C63.79 52.9003 57.7433 53.5658 57.7433 58.1036C57.7479 58.4322 57.7769 58.76 57.8301 59.084H65.7433V57.523L59.6336 57.534Z" fill="white"/>
</svg>
