<svg width="70" height="70" viewBox="0 0 70 70" fill="none" xmlns="http://www.w3.org/2000/svg">
<path d="M70 35C70 54.3302 54.3302 70 35 70C15.6698 70 0 54.3302 0 35C0 15.6698 15.6698 0 35 0C54.3302 0 70 15.6698 70 35Z" fill="url(#paint0_linear)"/>
<path d="M35.0219 50.8412L26.8621 42.2151L29.8421 39.3964L35.0139 44.864L40.1542 39.4006L43.1417 42.2108L35.0219 50.8412Z" fill="white"/>
<path d="M35 57.9698C26.7333 57.9698 20.0079 51.2444 20.0079 42.9777V27.0222C20.0079 18.7555 26.7333 12.0302 35 12.0302C43.2667 12.0302 49.9921 18.7555 49.9921 27.0222V42.9777C49.9921 51.2444 43.2667 57.9698 35 57.9698ZM35 16.1317C28.9945 16.1317 24.1095 21.0173 24.1095 27.0222V42.9777C24.1095 48.9827 28.9945 53.8682 35 53.8682C41.0049 53.8682 45.8905 48.9827 45.8905 42.9777V27.0222C45.8905 21.0173 41.0049 16.1317 35 16.1317Z" fill="white"/>
<path d="M36.7731 21.2608C36.7731 22.2397 35.9789 23.0333 35 23.0333C34.0211 23.0333 33.2269 22.2397 33.2269 21.2608C33.2269 20.2819 34.0211 19.4877 35 19.4877C35.9789 19.4877 36.7731 20.2819 36.7731 21.2608Z" fill="white"/>
<path d="M36.7731 21.2608C36.7731 22.2397 35.9789 23.0333 35 23.0333C34.0211 23.0333 33.2269 22.2397 33.2269 21.2608C33.2269 20.2819 34.0211 19.4877 35 19.4877C35.9789 19.4877 36.7731 20.2819 36.7731 21.2608Z" fill="white"/>
<path d="M36.7731 28.3521C36.7731 29.331 35.9789 30.1246 35 30.1246C34.0211 30.1246 33.2269 29.331 33.2269 28.3521C33.2269 27.3731 34.0211 26.579 35 26.579C35.9789 26.579 36.7731 27.3731 36.7731 28.3521Z" fill="white"/>
<path d="M36.7731 28.3521C36.7731 29.331 35.9789 30.1246 35 30.1246C34.0211 30.1246 33.2269 29.331 33.2269 28.3521C33.2269 27.3731 34.0211 26.579 35 26.579C35.9789 26.579 36.7731 27.3731 36.7731 28.3521Z" fill="white"/>
<path d="M36.7731 35.4432C36.7731 36.4222 35.9789 37.2158 35 37.2158C34.0211 37.2158 33.2269 36.4222 33.2269 35.4432C33.2269 34.4638 34.0211 33.6702 35 33.6702C35.9789 33.6702 36.7731 34.4638 36.7731 35.4432Z" fill="white"/>
<path d="M36.7731 35.4432C36.7731 36.4222 35.9789 37.2158 35 37.2158C34.0211 37.2158 33.2269 36.4222 33.2269 35.4432C33.2269 34.4638 34.0211 33.6702 35 33.6702C35.9789 33.6702 36.7731 34.4638 36.7731 35.4432Z" fill="white"/>
<defs>
<linearGradient id="paint0_linear" x1="0" y1="35" x2="70" y2="35" gradientUnits="userSpaceOnUse">
<stop stop-color="#00F38D"/>
<stop offset="1" stop-color="#009EFF"/>
</linearGradient>
</defs>
</svg>
