<svg fill="#1C449C" height="472pt" viewBox="-3 0 471 472" width="472pt" xmlns="http://www.w3.org/2000/svg"><path d="m424.5 32v-8c0-13.253906-10.746094-24-24-24s-24 10.746094-24 24v8h-24v-8c0-13.253906-10.746094-24-24-24s-24 10.746094-24 24v8h-24v-8c0-13.253906-10.746094-24-24-24s-24 10.746094-24 24v8h-24v-8c0-13.253906-10.746094-24-24-24s-24 10.746094-24 24v8h-24v-8c0-13.253906-10.746094-24-24-24s-24 10.746094-24 24v8h-8c-17.671875 0-32 14.328125-32 32v248h-8c-4.417969 0-8 3.582031-8 8v32c-17.671875 0-32 14.328125-32 32s14.328125 32 32 32v32c0 4.417969 3.582031 8 8 8h40v8c0 4.417969 3.582031 8 8 8h48c4.417969 0 8-3.582031 8-8v-16h144v16c0 4.417969 3.582031 8 8 8h48c4.417969 0 8-3.582031 8-8v-8h40c4.417969 0 8-3.582031 8-8h32c17.671875 0 32-14.328125 32-32v-344c-.027344-22.082031-17.917969-39.972656-40-40zm-32-8c0-4.417969 3.582031-8 8-8s8 3.582031 8 8v24c0 4.417969-3.582031 8-8 8s-8-3.582031-8-8zm-72 0c0-4.417969 3.582031-8 8-8s8 3.582031 8 8v24c0 4.417969-3.582031 8-8 8s-8-3.582031-8-8zm-72 0c0-4.417969 3.582031-8 8-8s8 3.582031 8 8v24c0 4.417969-3.582031 8-8 8s-8-3.582031-8-8zm-72 0c0-4.417969 3.582031-8 8-8s8 3.582031 8 8v24c0 4.417969-3.582031 8-8 8s-8-3.582031-8-8zm-72 0c0-4.417969 3.582031-8 8-8s8 3.582031 8 8v24c0 4.417969-3.582031 8-8 8s-8-3.582031-8-8zm-40 40c0-8.835938 7.164062-16 16-16h8c0 13.253906 10.746094 24 24 24s24-10.746094 24-24h24c0 13.253906 10.746094 24 24 24s24-10.746094 24-24h24c0 13.253906 10.746094 24 24 24s24-10.746094 24-24h24c0 13.253906 10.746094 24 24 24s24-10.746094 24-24h24c0 13.253906 10.746094 24 24 24s24-10.746094 24-24c13.253906 0 24 10.746094 24 24v24h-384zm-48 320c0-8.835938 7.164062-16 16-16v32c-8.835938 0-16-7.164062-16-16zm32 56v-112h32v112zm80 16h-32v-144h32zm160-56h-144v-32h144zm-144 32v-16h144v16zm192 24h-32v-144h32zm48-16h-32v-112h32zm16-72c8.835938 0 16 7.164062 16 16s-7.164062 16-16 16zm32 64h-32v-16c17.671875 0 32-14.328125 32-32s-14.328125-32-32-32v-32c0-4.417969-3.582031-8-8-8h-40v-8c0-4.417969-3.582031-8-8-8h-48c-4.417969 0-8 3.582031-8 8v48h-144v-48c0-4.417969-3.582031-8-8-8h-48c-4.417969 0-8 3.582031-8 8v8h-16v-200h384v304c0 8.835938-7.164062 16-16 16zm0 0"/><path d="m376.5 168h16v16h-16zm0 0"/><path d="m248.5 232h16v16h-16zm0 0"/><path d="m184.5 168h16v16h-16zm0 0"/><path d="m416.5 136h-320c-4.417969 0-8 3.582031-8 8v136h64v16h16v-16h48v48h16v-48h176v16h16v-152c0-4.417969-3.582031-8-8-8zm-8 64h-48v-48h48zm-176-48h48v48h-48zm-16 48h-48v-48h48zm80-48h48v48h-48zm-144 0v48h-48v-48zm-48 112v-48h48v48zm64 0v-48h48v48zm64 0v-48h48v48zm64 0v-48h48v48zm64 0v-48h48v48zm0 0"/><path d="m16.5 96h16v136h-16zm0 0"/><path d="m16.5 248h16v16h-16zm0 0"/></svg>
