<svg width="90" height="90" viewBox="0 0 90 90" fill="none" xmlns="http://www.w3.org/2000/svg">
<path d="M17.0999 21.6846C16.2205 21.6846 15.5077 22.3994 15.5077 23.2812C15.5077 24.1631 16.2205 24.8779 17.0999 24.8779C17.9792 24.8779 18.6921 24.1631 18.6921 23.2812C18.692 22.3994 17.9792 21.6846 17.0999 21.6846Z" fill="white"/>
<path d="M17.0999 31.7006C16.2205 31.7006 15.5077 32.4153 15.5077 33.2971C15.5077 34.1788 16.2205 34.8937 17.0999 34.8937C17.9792 34.8937 18.6921 34.1789 18.6921 33.2971C18.692 32.4153 17.9792 31.7006 17.0999 31.7006Z" fill="white"/>
<path d="M17.0999 41.7159C16.2205 41.7159 15.5077 42.4308 15.5077 43.3127C15.5077 44.1944 16.2205 44.9094 17.0999 44.9094C17.9792 44.9094 18.6921 44.1944 18.6921 43.3127C18.692 42.4308 17.9792 41.7159 17.0999 41.7159Z" fill="white"/>
<path d="M17.0999 51.7318C16.2205 51.7318 15.5077 52.4466 15.5077 53.3285C15.5077 54.2105 16.2205 54.9253 17.0999 54.9253C17.9792 54.9253 18.6921 54.2105 18.6921 53.3285C18.692 52.4466 17.9792 51.7318 17.0999 51.7318Z" fill="white"/>
<path d="M17.0999 61.7476C16.2205 61.7476 15.5077 62.4623 15.5077 63.3441C15.5077 64.2258 16.2205 64.9407 17.0999 64.9407C17.9792 64.9407 18.6921 64.2259 18.6921 63.3441C18.692 62.4623 17.9792 61.7476 17.0999 61.7476Z" fill="white"/>
<path d="M17.0999 71.7633C16.2205 71.7633 15.5077 72.4781 15.5077 73.3601C15.5077 74.2421 16.2205 74.9569 17.0999 74.9569C17.9792 74.9569 18.6921 74.2421 18.6921 73.3601C18.692 72.4781 17.9792 71.7633 17.0999 71.7633Z" fill="white"/>
<path d="M56.9844 23.2812C56.9844 22.3994 56.2716 21.6846 55.3921 21.6846C54.5128 21.6846 53.7998 22.3994 53.7998 23.2812C53.7998 24.1631 54.5126 24.8779 55.3921 24.8779C56.2716 24.8779 56.9844 24.163 56.9844 23.2812Z" fill="white"/>
<path d="M56.9844 33.2971C56.9844 32.4155 56.2716 31.7006 55.3921 31.7006C54.5128 31.7006 53.7998 32.4153 53.7998 33.2971C53.7998 34.1788 54.5126 34.8937 55.3921 34.8937C56.2716 34.8935 56.9844 34.1788 56.9844 33.2971Z" fill="white"/>
<path d="M56.9844 43.3127C56.9844 42.4308 56.2716 41.7159 55.3921 41.7159C54.5128 41.7159 53.7998 42.4308 53.7998 43.3127C53.7998 44.1944 54.5126 44.9094 55.3921 44.9094C56.2716 44.9094 56.9844 44.1944 56.9844 43.3127Z" fill="white"/>
<path d="M56.9844 53.3284C56.9844 52.4467 56.2716 51.7317 55.3921 51.7317C54.5128 51.7317 53.7998 52.4465 53.7998 53.3284C53.7998 54.2103 54.5126 54.925 55.3921 54.925C56.2716 54.925 56.9844 54.2103 56.9844 53.3284Z" fill="white"/>
<path d="M56.9844 63.3441C56.9844 62.4622 56.2716 61.7474 55.3921 61.7474C54.5128 61.7474 53.7998 62.4622 53.7998 63.3441C53.7998 64.2257 54.5126 64.9407 55.3921 64.9407C56.2716 64.9407 56.9844 64.2259 56.9844 63.3441Z" fill="white"/>
<path d="M55.3923 71.7633C54.513 71.7633 53.8 72.4781 53.8 73.3601C53.8 74.2421 54.5128 74.9569 55.3923 74.9569C56.2717 74.9569 56.9845 74.2421 56.9845 73.3601C56.9843 72.4781 56.2715 71.7633 55.3923 71.7633Z" fill="white"/>
<path d="M89.6043 83.3226C89.0121 82.2025 87.8586 81.5066 86.5939 81.5066H71.7694V77.4635C71.9292 77.4889 72.0918 77.5058 72.2586 77.5058H75.4785C77.2022 77.5058 78.6045 76.0995 78.6045 74.3712V67.6484H88.5939C89.322 67.6484 89.9123 67.0566 89.9123 66.3263C89.9123 65.5962 89.322 65.0043 88.5939 65.0043H78.6045V58.282C78.6045 56.5535 77.2021 55.1474 75.4785 55.1474H72.2586C72.0918 55.1474 71.9292 55.1643 71.7694 55.1897V50.1688C71.7694 49.4385 71.1793 48.8468 70.451 48.8468C69.7228 48.8468 69.1327 49.4385 69.1327 50.1688V81.5068H59.0722V14.26H62.7841V16.8621C62.7841 17.5924 63.3742 18.1841 64.1025 18.1841C64.8308 18.1841 65.4209 17.5924 65.4209 16.8621V14.26H69.1327V44.213C69.1327 44.9433 69.7228 45.535 70.451 45.535C71.1793 45.535 71.7694 44.9433 71.7694 44.213V25.215H78.5921C79.9975 25.215 81.141 24.0684 81.141 22.6591V21.9376H84.4595C85.8649 21.9376 87.0084 20.791 87.0084 19.3817V14.26H88.5948C89.3231 14.26 89.9132 13.6682 89.9132 12.9379C89.9132 12.2076 89.3231 11.6159 88.5948 11.6159H87.0084V8.21282C87.0084 6.80353 85.8649 5.65689 84.4595 5.65689H81.141V4.76725C81.141 3.35796 79.9975 2.21132 78.5921 2.21132H71.6815C71.6646 2.21132 71.6481 2.21343 71.6312 2.21379C71.238 0.933354 70.0476 0 68.6435 0H59.5614C57.8377 0 56.4354 1.40629 56.4354 3.13463V11.6159H33.477V3.13463C33.477 1.40611 32.0746 0 30.3511 0H21.269C19.8645 0 18.6738 0.933883 18.2809 2.21484C18.2577 2.21414 18.235 2.21132 18.2116 2.21132H11.34C9.92408 2.21132 8.77219 3.3666 8.77219 4.78628V5.65671H5.78742C4.19766 5.65671 2.90426 6.81181 2.90426 8.2315V11.6157H1.31836C0.590098 11.6157 0 12.2075 0 12.9378C0 13.668 0.590098 14.2598 1.31836 14.2598H2.90408V19.1943C2.90408 20.6142 4.19748 21.7693 5.78725 21.7693H8.77201V22.6399C8.77201 24.0597 9.92408 25.2149 11.3398 25.2149H18.1429V55.1894C17.9831 55.164 17.8205 55.1471 17.6537 55.1471H14.4338C12.71 55.1471 11.3078 56.5533 11.3078 58.2817V65.0041H1.31836C0.590098 65.0041 0 65.596 0 66.3262C0 67.0564 0.590098 67.6482 1.31836 67.6482H11.3078V74.371C11.3078 76.0995 12.7102 77.5056 14.4338 77.5056H17.6537C17.8205 77.5056 17.9831 77.4887 18.1429 77.4633V81.5064H3.44918C2.18443 81.5064 1.03096 82.2022 0.441035 83.3183C0.180527 83.8068 0.0430664 84.3606 0.0430664 84.9203V86.5841C0.0430664 88.4676 1.57096 89.9997 3.44918 89.9997H18.2965C19.0248 89.9997 19.6149 89.408 19.6149 88.6777C19.6149 87.9474 19.0248 87.3556 18.2965 87.3556H3.44918C3.02502 87.3556 2.67979 87.0094 2.67979 86.5841V84.9203C2.67979 84.792 2.70896 84.6724 2.76855 84.5607C2.90232 84.3077 3.16301 84.1505 3.44918 84.1505H86.5939C86.8801 84.1505 87.1407 84.3077 87.2768 84.5647C87.3341 84.6724 87.3633 84.7921 87.3633 84.9204V86.5843C87.3633 87.0096 87.018 87.3558 86.5939 87.3558H24.2179C23.4896 87.3558 22.8995 87.9476 22.8995 88.6778C22.8995 89.4081 23.4896 89.9999 24.2179 89.9999H86.5939C88.4721 89.9999 90 88.4677 90 86.5843V84.9204C90 84.361 89.8625 83.807 89.6043 83.3226ZM72.2586 57.7913H75.4785C75.7482 57.7913 75.9677 58.0113 75.9677 58.2819V74.371C75.9677 74.6416 75.7482 74.8616 75.4785 74.8616H72.2586C71.9889 74.8616 71.7694 74.6416 71.7694 74.371V58.282C71.7694 58.0115 71.9889 57.7913 72.2586 57.7913ZM84.3717 8.30095V19.2936H81.141V8.30095H84.3717ZM78.5044 6.96517C78.5044 6.96975 78.5037 6.97416 78.5037 6.97874C78.5037 6.98333 78.5044 6.98773 78.5044 6.99232V20.6018C78.5044 20.6064 78.5037 20.6108 78.5037 20.6154C78.5037 20.62 78.5044 20.6244 78.5044 20.629V22.5706H71.7696V4.85538H78.5044V6.96517ZM59.0722 3.13463C59.0722 2.86423 59.2917 2.64406 59.5614 2.64406H68.6435C68.9133 2.64406 69.1327 2.86423 69.1327 3.13463V11.6159H65.4209V9.01397C65.4209 8.28368 64.8308 7.69193 64.1025 7.69193C63.3742 7.69193 62.7841 8.28368 62.7841 9.01397V11.6161H59.0722V3.13463ZM21.269 2.64406H30.3511C30.6207 2.64406 30.8403 2.86423 30.8403 3.13463V11.6159H27.1283V9.01397C27.1283 8.28368 26.5382 7.69193 25.81 7.69193C25.0817 7.69193 24.4916 8.28368 24.4916 9.01397V11.6161H20.7798V3.13463C20.7798 2.86423 20.9992 2.64406 21.269 2.64406ZM5.78725 19.1256C5.67053 19.1256 5.58809 19.0965 5.5408 19.0713V8.35507C5.58826 8.32986 5.67053 8.30077 5.78725 8.30077H8.77201V19.1254H5.78725V19.1256ZM18.1427 22.5711H11.4087V4.85538H18.1427V22.5711ZM17.6539 74.8617H14.4338C14.1641 74.8617 13.9446 74.6417 13.9446 74.3712V58.282C13.9446 58.0115 14.1641 57.7915 14.4338 57.7915H17.6537C17.9234 57.7915 18.1429 58.0115 18.1429 58.282V74.3712C18.1431 74.6417 17.9235 74.8617 17.6539 74.8617ZM20.7798 14.26H24.4916V16.8621C24.4916 17.5924 25.0817 18.1841 25.81 18.1841C26.5382 18.1841 27.1283 17.5924 27.1283 16.8621V14.26H30.8403V38.055C30.8403 38.7852 31.4304 39.377 32.1587 39.377C32.8869 39.377 33.477 38.7852 33.477 38.055V14.26H56.4353V81.5066H33.477V43.957C33.477 43.2267 32.8869 42.635 32.1587 42.635C31.4304 42.635 30.8403 43.2267 30.8403 43.957V81.5068H20.7798V14.26Z" fill="white"/>
</svg>
