<svg width="32" height="32" viewBox="0 0 32 32" fill="none" xmlns="http://www.w3.org/2000/svg">
<path d="M32 0H0V32H32V0Z" fill="#7D3DAF"/>
<path d="M26.1206 10.315L26.1142 10.2897C25.6031 8.22326 23.2985 6.00581 21.1822 5.54448L21.1583 5.53957C17.7353 4.88655 14.2644 4.88655 10.8421 5.53957L10.8175 5.54448C8.70186 6.00581 6.39735 8.22326 5.88547 10.2897L5.87985 10.315C5.2479 13.2009 5.2479 16.1276 5.87985 19.0135L5.88547 19.0388C6.37551 21.017 8.50842 23.1326 10.5458 23.7144V26.0212C10.5458 26.8561 11.5632 27.2661 12.1418 26.6637L14.479 24.2342C14.9859 24.2626 15.493 24.2784 16.0002 24.2784C17.7233 24.2784 19.4472 24.1155 21.1583 23.789L21.1822 23.7841C23.2985 23.3228 25.6031 21.1053 26.1142 19.0388L26.1206 19.0136C26.7525 16.1276 26.7525 13.2009 26.1206 10.315ZM24.271 18.595C23.9298 19.9432 22.18 21.6192 20.7897 21.9289C18.9696 22.275 17.1351 22.4229 15.3025 22.3722C15.266 22.3712 15.231 22.3853 15.2056 22.4114C14.9455 22.6784 13.4991 24.1632 13.4991 24.1632L11.684 26.026C11.5513 26.1644 11.3181 26.0703 11.3181 25.8793V22.0579C11.3181 21.9948 11.2731 21.9412 11.2111 21.929C11.2107 21.929 11.2104 21.9289 11.21 21.9288C9.81972 21.6192 8.07061 19.9431 7.72866 18.5949C7.1599 15.9864 7.1599 13.342 7.72866 10.7334C8.07061 9.38527 9.81972 7.7092 11.21 7.39954C14.3887 6.79497 17.6117 6.79497 20.7897 7.39954C22.1807 7.7092 23.9298 9.38527 24.271 10.7334C24.8404 13.3421 24.8404 15.9864 24.271 18.595Z" fill="white"/>
<path d="M19.0247 20.359C18.8109 20.2942 18.6072 20.2505 18.418 20.172C16.4579 19.3588 14.6539 18.3096 13.2249 16.7013C12.4122 15.7867 11.7762 14.7542 11.2386 13.6615C10.9836 13.1433 10.7688 12.6048 10.5497 12.0698C10.35 11.5819 10.6442 11.0779 10.9539 10.7103C11.2445 10.3654 11.6185 10.1013 12.0235 9.90678C12.3396 9.7549 12.6515 9.84246 12.8824 10.1104C13.3815 10.6897 13.8399 11.2986 14.2111 11.9701C14.4394 12.3831 14.3768 12.888 13.9631 13.169C13.8625 13.2374 13.7709 13.3176 13.6772 13.3947C13.5951 13.4623 13.5177 13.5307 13.4614 13.6222C13.3585 13.7898 13.3536 13.9874 13.4199 14.1695C13.9301 15.5716 14.79 16.6618 16.2012 17.2491C16.427 17.343 16.6538 17.4524 16.914 17.4221C17.3497 17.3712 17.4908 16.8933 17.7961 16.6436C18.0945 16.3996 18.4758 16.3964 18.7973 16.5998C19.1188 16.8033 19.4305 17.0217 19.7403 17.2425C20.0444 17.4592 20.3472 17.6711 20.6277 17.9182C20.8974 18.1557 20.9903 18.4673 20.8384 18.7897C20.5604 19.3801 20.1558 19.8712 19.5721 20.1848C19.4073 20.2732 19.2105 20.3018 19.0247 20.359C18.8109 20.2941 19.2105 20.3018 19.0247 20.359Z" fill="white"/>
<path d="M16.0057 9.23154C18.5697 9.30337 20.6755 11.0049 21.1268 13.5398C21.2037 13.9717 21.2311 14.4133 21.2653 14.8516C21.2797 15.036 21.1753 15.2112 20.9763 15.2136C20.7708 15.216 20.6783 15.0441 20.6649 14.8598C20.6385 14.4949 20.6202 14.1285 20.5699 13.7666C20.3045 11.8567 18.7815 10.2765 16.8804 9.93743C16.5943 9.88638 16.3015 9.87297 16.0117 9.84256C15.8286 9.82332 15.5886 9.81223 15.548 9.58452C15.514 9.3936 15.6751 9.24158 15.8569 9.23182C15.9064 9.22908 15.9561 9.23132 16.0057 9.23154C18.5697 9.30337 15.9561 9.23132 16.0057 9.23154Z" fill="white"/>
<path d="M19.9021 14.2824C19.8978 14.3145 19.8956 14.3897 19.8768 14.4607C19.8088 14.7181 19.4185 14.7503 19.3287 14.4905C19.3021 14.4134 19.2981 14.3257 19.2979 14.2427C19.297 13.6996 19.179 13.1572 18.9051 12.6847C18.6236 12.199 18.1935 11.7908 17.6891 11.5438C17.3841 11.3944 17.0542 11.3016 16.7199 11.2463C16.5738 11.2221 16.4261 11.2074 16.2793 11.187C16.1014 11.1623 16.0064 11.0489 16.0148 10.8736C16.0227 10.7093 16.1427 10.5911 16.3218 10.6012C16.9102 10.6346 17.4785 10.7618 18.0016 11.0388C19.0654 11.6021 19.6731 12.4914 19.8504 13.6787C19.8585 13.7325 19.8714 13.7858 19.8754 13.8398C19.8855 13.9731 19.8918 14.1066 19.9021 14.2824C19.8978 14.3145 19.8918 14.1066 19.9021 14.2824Z" fill="white"/>
<path d="M18.3075 14.2205C18.0929 14.2244 17.9781 14.1057 17.956 13.909C17.9406 13.7718 17.9285 13.6329 17.8958 13.4995C17.8313 13.2367 17.6917 12.9932 17.4706 12.8322C17.3663 12.7562 17.248 12.7008 17.1242 12.665C16.9668 12.6196 16.8034 12.6321 16.6464 12.5936C16.4759 12.5518 16.3816 12.4138 16.4084 12.2538C16.4328 12.1083 16.5744 11.9947 16.7335 12.0062C17.7275 12.0779 18.438 12.5919 18.5394 13.7621C18.5465 13.8447 18.555 13.9319 18.5366 14.0109C18.5053 14.1462 18.4051 14.2139 18.3075 14.2205C18.0929 14.2244 18.4051 14.2139 18.3075 14.2205Z" fill="white"/>
</svg>
