<svg width="90" height="90" viewBox="0 0 90 90" fill="none" xmlns="http://www.w3.org/2000/svg">
<g clip-path="url(#clip0)">
<path d="M41.2588 10.5717H18.882C17.525 10.5717 16.4209 11.6757 16.4209 13.0328V40.9799C16.4209 42.3369 17.525 43.441 18.882 43.441H41.2588C42.6158 43.441 43.7199 42.3369 43.7199 40.9799V13.0328C43.7199 11.6757 42.6158 10.5717 41.2588 10.5717ZM41.1582 40.8792H18.9826V13.1333H41.1582V40.8792Z" fill="white"/>
<path d="M41.2588 46.3429H18.882C17.525 46.3429 16.4209 47.447 16.4209 48.804V76.7509C16.4209 78.1082 17.525 79.2121 18.882 79.2121H41.2588C42.6158 79.2121 43.7199 78.108 43.7199 76.7509V48.804C43.7199 47.447 42.6158 46.3429 41.2588 46.3429ZM41.1582 76.6506H18.9826V48.9047H41.1582V76.6506Z" fill="white"/>
<path d="M71.1179 10.5717H48.7413C47.3841 10.5717 46.28 11.6757 46.28 13.0328V40.9799C46.28 42.3369 47.3841 43.441 48.7413 43.441H71.1179C72.4751 43.441 73.5792 42.3369 73.5792 40.9799V13.0328C73.579 11.6757 72.4751 10.5717 71.1179 10.5717ZM71.0174 40.8792H48.8417V13.1333H71.0174V40.8792Z" fill="white"/>
<path d="M71.1179 46.3429H48.7413C47.3841 46.3429 46.28 47.447 46.28 48.804V76.7509C46.28 78.1082 47.3841 79.2121 48.7413 79.2121H71.1179C72.4751 79.2121 73.5792 78.108 73.5792 76.7509V48.804C73.579 47.447 72.4751 46.3429 71.1179 46.3429ZM71.0174 76.6506H48.8417V48.9047H71.0174V76.6506Z" fill="white"/>
<path d="M86.7519 80.7888H84.1508V19.3515C84.1508 18.6442 83.5774 18.0706 82.8699 18.0706C82.1624 18.0706 81.589 18.644 81.589 19.3515V80.7888H78.5322V8.37976C78.5322 6.85714 77.2934 5.61841 75.7708 5.61841H14.2289C12.7063 5.61841 11.4676 6.85714 11.4676 8.37976V80.7888H8.41071V68.1603C8.41071 67.453 7.83732 66.8794 7.1298 66.8794C6.42228 66.8794 5.84888 67.4528 5.84888 68.1603V80.7888H3.24802C1.83245 80.7888 0.680908 81.9405 0.680908 83.3559V87.433C0.680908 88.8485 1.83263 90.0001 3.24802 90.0001H86.7519C88.1674 90.0001 89.319 88.8484 89.319 87.433V83.3559C89.319 81.9403 88.1674 80.7888 86.7519 80.7888ZM14.0292 8.37976C14.0292 8.26972 14.1187 8.18007 14.2289 8.18007H75.771C75.881 8.18007 75.9707 8.26954 75.9707 8.37976V80.7888H14.0292V8.37976ZM86.7543 87.4383C86.7543 87.4383 86.7536 87.4384 86.7519 87.4384L3.24257 87.433L3.24802 83.3505L86.7573 83.3559L86.7543 87.4383Z" fill="white"/>
<path d="M81.7341 0H8.26594C6.93334 0 5.84912 1.08404 5.84912 2.41682V62.0798C5.84912 62.7869 6.42252 63.3605 7.13004 63.3605C7.83738 63.3605 8.41096 62.7871 8.41096 62.0796V2.56166H81.5894V13.2565C81.5894 13.9639 82.1628 14.5375 82.8703 14.5375C83.5778 14.5375 84.1512 13.9641 84.1512 13.2565V2.41682C84.1509 1.08404 83.0667 0 81.7341 0Z" fill="white"/>
</g>
<defs>
<clipPath id="clip0">
<rect width="90" height="90" fill="white"/>
</clipPath>
</defs>
</svg>
