<svg width="90" height="90" viewBox="0 0 90 90" fill="none" xmlns="http://www.w3.org/2000/svg">
<path d="M7.46934 89.2968H16.9352C17.7641 89.2968 18.5436 88.9741 19.13 88.3876C19.7164 87.8012 20.0391 87.0222 20.0391 86.1928V83.1589C20.0391 82.3742 20.1084 81.5839 20.2455 80.8058L22.0472 70.1957C27.694 69.6806 36.5003 67.9242 38.3299 67.5519C42.3433 70.9361 49.2965 75.01 53.8844 77.556C55.284 78.333 56.7985 78.8121 58.3851 78.9809L70.206 80.2384C71.7111 80.3984 73.1465 80.9633 74.3576 81.8714L74.822 82.2198L74.2624 85.5787L72.9556 85.952C72.2275 86.1601 71.7188 86.8341 71.7188 87.5917C71.7188 88.5318 72.4838 89.2968 73.4239 89.2968H76.3823C77.4574 89.2968 78.4368 88.6218 78.82 87.617L81.0401 81.7892C81.1537 81.4917 81.211 81.1792 81.211 80.8603C81.211 79.7083 80.471 78.7063 79.3699 78.3674L76.2301 77.4013L69.0543 72.9857C67.7215 72.1655 66.2629 71.6244 64.7181 71.3773L60.7416 70.741C59.1339 70.4836 57.5874 69.8431 56.2687 68.8882L50.5396 64.7398C49.1408 63.7269 48.0941 62.3312 47.513 60.7042L47.4796 60.611C46.9424 59.1067 46.0379 57.7391 44.8643 56.6556L43.0918 55.0194L42.1875 52.6067V48.7233L44.7933 44.6962C45.6308 43.4017 45.9447 41.8527 45.6768 40.3343L45.0672 36.8785L45.4138 35.7763C48.7231 35.1653 50.0242 31.7014 50.072 31.5692C50.1642 31.3407 50.245 31.1076 50.3192 30.872C50.5618 30.9191 50.8072 30.9434 51.0518 30.9434C51.8907 30.9434 52.7214 30.6699 53.4038 30.1404C55.0769 28.8435 55.3831 26.4272 54.0862 24.7538C52.9911 23.3412 51.0666 22.8982 49.4807 23.6101C49.4441 23.5658 49.4118 23.5258 49.3724 23.4783C49.3489 23.4498 49.3295 23.4263 49.307 23.3992L52.996 11.6458L56.3253 8.68561C56.725 8.36323 56.9535 7.88545 56.9535 7.37077C56.9535 6.84342 56.7141 6.3558 56.2968 6.03342C55.8792 5.71104 55.3476 5.60241 54.8371 5.73565L54.5847 5.80139L55.0786 4.1392C55.247 3.57178 55.1665 2.95725 54.8565 2.45311C54.5467 1.94862 54.0349 1.59881 53.453 1.49299L53.337 1.47155C52.4845 1.31791 51.614 1.71307 51.171 2.45768L49.5109 5.24979C49.1773 5.81053 48.972 6.45108 48.9179 7.10182L48.645 10.377L44.3338 20.6549C42.4846 20.2457 40.2497 21.3939 39.432 22.2696C38.3917 23.383 37.7666 25.1025 37.5656 25.7188L35.8018 27.086C35.5223 27.3026 35.447 27.6928 35.626 27.9976L36.366 29.2587C36.122 29.8124 35.7121 30.8819 35.7677 31.708C35.8193 32.4811 36.8811 34.4474 38.7004 34.9375L38.4954 35.4596L33.7539 37.6326C32.0509 38.413 30.7825 39.9691 30.3613 41.7947C30.0263 43.247 30.2348 44.7672 30.9481 46.0757L31.9778 47.9632L31.6459 51.9475L30.9467 56.4935C30.9136 56.708 30.9815 56.9256 31.1306 57.0835C31.1555 57.1098 31.184 57.132 31.2125 57.1541L31.0972 57.4593L15.9979 63.0776C14.6345 63.5234 13.7398 64.8351 13.8224 66.2673L14.5948 79.6576C14.6968 81.4232 14.4577 83.1606 13.8843 84.8274L7.10864 86.3546C6.44278 86.5212 5.97766 87.1164 5.97766 87.803C5.97661 88.6271 6.64633 89.2968 7.46934 89.2968ZM75.5691 78.6455C75.6197 78.6768 75.6742 78.7014 75.7308 78.7186L78.9561 79.7111C79.4637 79.8672 79.8047 80.3291 79.8047 80.86C79.8047 81.0069 79.7784 81.1511 79.726 81.2882L77.5059 87.1164C77.3294 87.5794 76.878 87.8905 76.3826 87.8905H73.4242C73.2593 87.8905 73.1254 87.7566 73.1254 87.5917C73.1254 87.4592 73.2143 87.3407 73.3423 87.3041L75.0766 86.8088C75.3378 86.7342 75.5322 86.5159 75.5769 86.2484L76.28 82.0296C76.3232 81.7705 76.2185 81.5093 76.0082 81.3515L75.2017 80.7464C73.7881 79.6861 72.1118 79.0269 70.3551 78.8403L61.9949 77.9508C62.3778 76.591 63.6213 74.304 64.561 72.7776C65.8983 72.9997 67.1622 73.4715 68.3178 74.1828L75.5691 78.6455ZM48.759 31.065C48.7491 31.0917 47.9022 33.3389 45.9215 34.1612L48.7952 25.0266C48.7969 25.0294 48.7997 25.034 48.8011 25.0368C49.5665 26.7401 49.5535 29.0977 48.759 31.065ZM52.9745 25.6158C53.7961 26.6761 53.6024 28.2075 52.5421 29.0295C51.9993 29.4503 51.3088 29.612 50.6447 29.4995C50.9084 27.8834 50.7724 26.2244 50.2331 24.8213C51.2009 24.4753 52.3206 24.7724 52.9745 25.6158ZM49.9845 10.8185C50.013 10.7507 50.0306 10.6786 50.0369 10.6051L50.3188 7.21924C50.3554 6.78014 50.4939 6.34772 50.7193 5.96909L52.3793 3.17698C52.5027 2.96955 52.7281 2.84475 52.9647 2.84475C53.0044 2.84475 53.0449 2.84827 53.0846 2.85565L53.2006 2.87709C53.3933 2.91225 53.5557 3.02334 53.658 3.18998C53.7603 3.35662 53.7859 3.55174 53.7304 3.73948L52.8807 6.59698C52.8083 6.84026 52.8729 7.10358 53.0491 7.28604C53.2256 7.4685 53.4871 7.54233 53.7322 7.47764L55.1915 7.0969C55.3086 7.06702 55.3954 7.11518 55.4365 7.14717C55.4777 7.17881 55.5469 7.25053 55.5469 7.37182C55.5469 7.45971 55.5072 7.54092 55.4383 7.59506C55.4267 7.60385 55.4158 7.61334 55.4045 7.62319L51.9156 10.7254C51.8204 10.8101 51.75 10.9187 51.7121 11.0404L47.8136 23.4621L42.53 40.2598C42.2568 41.2414 41.3213 41.8668 40.312 41.7525C39.6704 41.6787 39.1121 41.318 38.7813 40.7636C38.4501 40.2092 38.3974 39.5472 38.6375 38.9439L45.3052 21.9761L49.9845 10.8185ZM43.7889 21.988L42.4815 25.3149C41.7537 24.4796 40.9722 23.6808 40.4895 23.2009C41.0197 22.663 42.5718 21.8548 43.7889 21.988ZM37.1704 31.6145C37.1338 31.0717 37.5293 30.0522 37.7874 29.5368C37.8939 29.3241 37.8858 29.071 37.7652 28.8657L37.1511 27.819L38.6013 26.6948C38.7194 26.6033 38.8052 26.4764 38.8463 26.333C38.8502 26.3189 39.1381 25.3342 39.6665 24.3674C40.2529 24.9573 41.1497 25.8897 41.8704 26.7693L41.9277 26.7222L39.2214 33.6093C37.947 33.3765 37.2056 31.8743 37.1704 31.6145ZM31.7307 42.1115C32.0545 40.7077 33.0297 39.5113 34.3393 38.9115L37.7533 37.3467L37.3297 38.425C36.9271 39.435 37.0161 40.5495 37.5736 41.4832C38.1312 42.417 39.0706 43.0234 40.1509 43.1482C40.2874 43.1641 40.4227 43.1718 40.5574 43.1714C42.099 43.1714 43.4613 42.1572 43.8782 40.6581L44.1521 39.7869L44.2916 40.5787C44.4977 41.7458 44.2565 42.9369 43.6124 43.9322L40.8941 48.1334C40.8203 48.2473 40.7813 48.3798 40.7813 48.5155V52.7343C40.7813 52.8187 40.7964 52.9023 40.8259 52.9811L41.5586 54.9351L32.4728 55.8143L33.0385 52.1377C33.0409 52.1215 33.0431 52.1053 33.0445 52.0892L33.396 47.8704C33.4073 47.7333 33.3784 47.5962 33.3127 47.4753L32.1821 45.4025C31.6333 44.397 31.473 43.228 31.7307 42.1115ZM16.4606 64.4058L31.8857 58.6665C32.0759 58.5959 32.2264 58.4465 32.2981 58.2563L32.6961 57.2055L42.3728 56.2689L43.9106 57.6885C44.9178 58.6184 45.694 59.7923 46.1553 61.0839L46.1887 61.1771C46.8654 63.0723 48.085 64.698 49.7149 65.8785L55.4439 70.0269C56.9398 71.1101 58.6952 71.8371 60.5194 72.1293L63.0626 72.536C62.2885 73.8337 60.9768 76.1817 60.5841 77.8003L58.5338 77.5824C57.1356 77.4337 55.8011 77.0111 54.5671 76.3262C44.241 70.5958 37.5353 65.8391 36.6286 63.6025L35.3254 64.1309C35.5926 64.7901 36.1917 65.5516 37.0298 66.377C33.2118 67.1304 22.3257 69.1888 18.687 68.9079L18.5791 70.3099C18.8329 70.3296 19.117 70.3388 19.4284 70.3388C19.786 70.3388 20.1808 70.3258 20.6027 70.3029L20.3798 71.615C17.8425 71.5714 16.1125 70.7758 15.4695 70.4242L15.2252 66.1872C15.1795 65.3916 15.6762 64.6628 16.4606 64.4058ZM7.43278 87.7239L14.5688 86.1155C14.7998 86.0635 14.9893 85.8982 15.0726 85.6764C15.807 83.7178 16.1185 81.6658 15.9979 79.5778L15.5627 72.0333C16.5393 72.4569 18.0985 72.9484 20.1425 73.0131L18.86 80.5657C18.7095 81.4197 18.6329 82.2923 18.6329 83.1585V86.1925C18.6329 86.646 18.4564 87.0721 18.1357 87.3931C17.8151 87.7137 17.3887 87.8902 16.9352 87.8902H7.46934C7.42153 87.8905 7.38286 87.8519 7.38286 87.8041C7.38286 87.7643 7.40993 87.7295 7.43278 87.7239Z" fill="black"/>
</svg>
